<svg width="48" height="48" viewBox="0 0 48 48" fill="none" xmlns="http://www.w3.org/2000/svg">
<path d="M8 42H10V16H8C6.93913 16 5.92172 16.4214 5.17157 17.1716C4.42143 17.9217 4 18.9391 4 20V38C4 39.0609 4.42143 40.0783 5.17157 40.8284C5.92172 41.5786 6.93913 42 8 42ZM40 16H26L28.244 9.264C28.4442 8.66283 28.4988 8.02269 28.4031 7.39631C28.3075 6.76993 28.0644 6.17523 27.694 5.66119C27.3235 5.14715 26.8362 4.72848 26.2722 4.43967C25.7082 4.15086 25.0836 4.00016 24.45 4H24L14 14.876V42H36L43.824 24.808L44 24V20C44 18.9391 43.5786 17.9217 42.8284 17.1716C42.0783 16.4214 41.0609 16 40 16Z" fill="#FF7346"/>
</svg>
