<svg width="48" height="48" viewBox="0 0 48 48" fill="none" xmlns="http://www.w3.org/2000/svg">
<path d="M35.7895 7.106C35.6232 6.77368 35.3676 6.49421 35.0515 6.29888C34.7354 6.10354 34.3711 6.00006 33.9995 6H13.9995C13.2415 6 12.5495 6.428 12.2095 7.106L4.20948 23.106C4.07044 23.3839 3.99805 23.6903 3.99805 24.001C3.99805 24.3117 4.07044 24.6181 4.20948 24.896L12.2095 40.896C12.5495 41.572 13.2415 42 13.9995 42H33.9995C34.7575 42 35.4495 41.572 35.7895 40.894L43.7895 24.894C43.9285 24.6161 44.0009 24.3097 44.0009 23.999C44.0009 23.6883 43.9285 23.3819 43.7895 23.104L35.7895 7.106ZM38.7635 22H23.2355L17.2355 10H32.7635L38.7635 22ZM32.7635 38H17.2355L23.2355 26H38.7635L32.7635 38Z" fill="#FF7346"/>
</svg>
