<svg width="48" height="48" viewBox="0 0 48 48" fill="none" xmlns="http://www.w3.org/2000/svg">
<path d="M30.3298 31.1639C39.5038 23.0179 46.6118 12.3159 42.4438 7.62195C41.1218 6.13395 39.2758 5.44395 37.2938 5.65595C35.6298 5.83795 33.9198 6.65995 32.1958 8.03995C29.4858 6.63594 26.4608 5.95055 23.4103 6.0493C20.3597 6.14804 17.3854 7.02762 14.7718 8.60395C12.7401 9.8069 10.9674 11.4014 9.55666 13.2948C8.14594 15.1882 7.12526 17.3429 6.55384 19.6339C5.66323 23.1629 5.87684 26.8802 7.16584 30.2839C5.03584 32.6899 3.05784 37.638 5.51984 40.41C6.55384 41.5719 8.03384 42.0919 9.81384 42.0919C15.2278 42.0919 23.4298 37.2939 30.3298 31.1639ZM37.7278 9.62995C38.4438 9.56195 38.9918 9.75795 39.4498 10.2759C39.9118 10.7979 39.7878 12.1679 38.9458 14.1339C38.0413 12.7574 36.9533 11.5105 35.7118 10.4279C36.5738 9.90395 37.2638 9.68195 37.7278 9.62995ZM9.26584 34.2359C10.1552 35.5258 11.2094 36.6937 12.4018 37.7099C10.3518 38.3159 8.97384 38.2759 8.51184 37.7519C8.07784 37.2659 8.51584 35.6139 9.26584 34.2359ZM41.8858 22.4979C39.4558 26.0919 36.0738 29.84 32.3298 33.1639C28.4618 36.6019 24.1978 39.58 20.2298 41.568C21.4611 41.839 22.7172 41.9811 23.9778 41.992C27.2305 41.9885 30.4212 41.1023 33.2098 39.428C36.1068 37.7129 38.459 35.2128 39.9944 32.2167C41.5297 29.2207 42.1855 25.8511 41.8858 22.4979Z" fill="#FF7346"/>
</svg>
