<svg width="48" height="48" viewBox="0 0 48 48" fill="none" xmlns="http://www.w3.org/2000/svg">
<g clip-path="url(#clip0_104_8145)">
<path d="M47.9907 48C31.978 48 16.0034 48 0.00976562 48C0.00976562 37.0866 0.00976562 26.1922 0.00976562 15.2693C15.9843 15.2693 31.978 15.2693 47.9907 15.2693C47.9907 26.1541 47.9907 37.058 47.9907 48ZM34.0368 43.0151C34.8374 42.2145 35.7238 41.3376 36.6579 40.4035C36.5626 40.3273 36.4196 40.2224 36.2957 40.0985C34.6849 38.4972 33.0836 36.8864 31.4728 35.2852C31.2345 35.0564 31.2059 34.8944 31.387 34.6084C32.5975 32.6355 33.0169 30.4909 32.6452 28.2129C31.8731 23.3805 27.6222 19.9683 22.704 20.197C17.9669 20.4162 13.9923 24.2955 13.7349 29.0802C13.5348 32.8261 15.0407 35.8189 18.2433 37.8015C21.4268 39.7745 24.7341 39.7459 28.0034 37.9254C28.3942 37.7061 28.5944 37.7252 28.9089 38.0397C30.615 39.7363 32.3497 41.3852 34.0368 43.0151Z" fill="#FF7346"/>
<path d="M0 11.3805C0 7.57744 0 3.80302 0 0C15.9936 0 31.9682 0 47.9809 0C47.9809 3.77442 47.9809 7.55838 47.9809 11.3805C32.0064 11.3805 16.0222 11.3805 0 11.3805ZM44.1874 3.82208C38.3352 3.82208 32.5115 3.82208 26.7069 3.82208C26.7069 5.09929 26.7069 6.3479 26.7069 7.57744C32.5496 7.57744 38.3542 7.57744 44.1874 7.57744C44.1874 6.3193 44.1874 5.08975 44.1874 3.82208ZM3.82208 3.81255C3.82208 5.08975 3.82208 6.33836 3.82208 7.56791C5.09928 7.56791 6.33836 7.56791 7.57744 7.56791C7.57744 6.30024 7.57744 5.07069 7.57744 3.81255C6.3193 3.81255 5.08975 3.81255 3.82208 3.81255ZM11.4376 7.56791C12.7244 7.56791 13.9635 7.56791 15.193 7.56791C15.193 6.29071 15.193 5.0421 15.193 3.81255C13.9253 3.81255 12.6863 3.81255 11.4376 3.81255C11.4376 5.07069 11.4376 6.30024 11.4376 7.56791Z" fill="#FF7346"/>
<path d="M28.9569 29.6998C28.9665 32.8642 26.4025 35.4377 23.2381 35.4377C20.0832 35.4377 17.5193 32.8737 17.5098 29.7093C17.5098 26.5735 20.0737 24 23.2 24C26.3835 23.9905 28.9569 26.5449 28.9569 29.6998Z" fill="#FF7346"/>
</g>
<defs>
<clipPath id="clip0_104_8145">
<rect width="47.9905" height="48" fill="white"/>
</clipPath>
</defs>
</svg>
