<svg width="51" height="42" viewBox="0 0 51 42" fill="none" xmlns="http://www.w3.org/2000/svg">
<g clip-path="url(#clip0_104_8196)">
<path d="M25.5054 42C18.662 42 11.8185 42 4.98594 42C1.94441 42 0 40.0422 0 36.9688C0 26.3047 0 15.6516 0 4.9875C0 1.95781 1.96613 0 4.97508 0C18.662 0 32.338 0 46.0249 0C49.0447 0 51 1.95781 51 4.97656C51 15.6516 51 26.3375 51 37.0125C51 39.6484 49.4792 41.5297 47.0026 41.9453C46.6875 42 46.3508 42 46.0249 42C39.1923 42 32.3489 42 25.5054 42ZM23.17 9.3625C18.5208 9.3625 13.9259 9.3625 9.32013 9.3625C9.32013 14.0219 9.32013 18.6484 9.32013 23.275C13.9585 23.275 18.5534 23.275 23.17 23.275C23.17 18.6156 23.17 14.0109 23.17 9.3625ZM41.6799 28.0328C30.8824 28.0328 20.1067 28.0328 9.33099 28.0328C9.33099 29.5859 9.33099 31.1063 9.33099 32.6484C20.1284 32.6484 30.8824 32.6484 41.6799 32.6484C41.6799 31.0953 41.6799 29.575 41.6799 28.0328ZM41.6799 13.9781C41.6799 12.4141 41.6799 10.9047 41.6799 9.37344C37.0524 9.37344 32.4575 9.37344 27.8409 9.37344C27.8409 10.9375 27.8409 12.4578 27.8409 13.9781C32.4792 13.9781 37.0633 13.9781 41.6799 13.9781ZM41.6799 23.2969C41.6799 21.7328 41.6799 20.2234 41.6799 18.725C37.0415 18.725 32.4466 18.725 27.8518 18.725C27.8518 20.2781 27.8518 21.7766 27.8518 23.2969C32.4684 23.2969 37.0524 23.2969 41.6799 23.2969Z" fill="#FF7346"/>
<path d="M13.9258 18.6375C13.9258 17.0843 13.9258 15.5859 13.9258 14.0437C15.4574 14.0437 16.9673 14.0437 18.5098 14.0437C18.5098 15.564 18.5098 17.0843 18.5098 18.6375C17.0108 18.6375 15.5009 18.6375 13.9258 18.6375Z" fill="#FF7346"/>
</g>
<defs>
<clipPath id="clip0_104_8196">
<rect width="51" height="42" fill="white"/>
</clipPath>
</defs>
</svg>
