<svg width="35" height="48" viewBox="0 0 35 48" fill="none" xmlns="http://www.w3.org/2000/svg">
<g clip-path="url(#clip0_104_8164)">
<path d="M19.3183 31.5944C19.3183 31.3835 19.3183 31.2206 19.3183 31.0673C19.3183 27.5504 19.3279 24.0431 19.3087 20.5263C19.3087 20.1717 19.4142 19.9417 19.6633 19.6926C20.7174 18.696 21.7619 17.6802 22.7969 16.6548C23.4485 16.0128 23.5827 15.1791 23.2281 14.4125C22.8735 13.6459 22.0782 13.1476 21.2732 13.1859C20.6982 13.2146 20.2383 13.483 19.8454 13.8854C19.0404 14.7 18.2259 15.5145 17.3634 16.3865C16.6639 15.6774 16.0027 14.997 15.3319 14.3167C15.1307 14.1154 14.9294 13.9046 14.7186 13.7129C13.8657 12.9655 12.7062 13.023 11.9204 13.8471C11.1538 14.6521 11.1347 15.7924 11.9204 16.6069C12.9171 17.6419 13.9424 18.6576 14.9678 19.6542C15.2457 19.9226 15.3511 20.1909 15.3511 20.5742C15.3319 24.0719 15.3415 27.5696 15.3415 31.0673C15.3415 31.2206 15.3415 31.3835 15.3415 31.5656C14.2778 31.5656 13.262 31.5752 12.2463 31.5656C10.7897 31.556 9.34269 31.5369 7.88611 31.4889C7.63696 31.4794 7.33989 31.4027 7.14824 31.259C-2.33869 24.2348 -2.52076 10.129 7.32073 3.21983C16.4148 -3.17187 28.8148 0.335421 33.2612 10.5027C36.414 17.6994 34.1141 26.2472 27.7512 31.1056C27.2816 31.4602 26.8312 31.6231 26.2371 31.6135C23.966 31.5752 21.6853 31.5944 19.3183 31.5944Z" fill="#FF7346"/>
<path d="M7.50337 35.6191C14.0771 35.6191 20.6126 35.6191 27.1768 35.6191C27.1863 35.7725 27.2055 35.897 27.2055 36.0216C27.2055 37.6219 27.2151 39.2127 27.2055 40.813C27.1672 44.7036 24.4361 47.6934 20.5455 47.9234C18.2744 48.0576 15.9745 48.0192 13.7034 47.8755C10.4644 47.6742 7.65669 44.7132 7.52253 41.4742C7.43629 39.5481 7.50337 37.6124 7.50337 35.6191Z" fill="#FF7346"/>
</g>
<defs>
<clipPath id="clip0_104_8164">
<rect width="34.6704" height="48" fill="white"/>
</clipPath>
</defs>
</svg>
