<svg width="52" height="48" viewBox="0 0 52 48" fill="none" xmlns="http://www.w3.org/2000/svg">
<path d="M0 7.34199C3.72872 7.34199 7.37662 7.34199 11.0707 7.34199C11.0707 4.88312 11.0707 2.45887 11.0707 0C24.6234 0 38.1414 0 51.7287 0C51.7287 0.196248 51.7287 0.40404 51.7287 0.600289C51.7287 13.8182 51.7287 27.0476 51.7287 40.2655C51.7287 44.8139 48.5541 47.9885 43.9942 47.9885C31.9076 47.9885 19.8211 47.9885 7.73449 47.9885C3.1746 47.9885 0 44.8139 0 40.2655C0 29.6797 0 19.0938 0 8.50794C0 8.15007 0 7.79221 0 7.34199ZM44.2944 22.1068C44.2944 17.1659 44.2944 12.2713 44.2944 7.39971C35.6595 7.39971 27.0823 7.39971 18.5051 7.39971C18.5051 12.329 18.5051 17.2006 18.5051 22.1068C27.1169 22.1068 35.6825 22.1068 44.2944 22.1068ZM3.69408 11.0707C3.69408 14.3261 3.69408 17.5238 3.69408 20.71C3.69408 27.267 3.69408 33.824 3.69408 40.3925C3.69408 41.5469 4.0404 42.5628 4.9062 43.3362C6.08369 44.3752 7.43434 44.6176 8.87735 43.9827C10.3319 43.3247 11.0823 42.1356 11.0823 40.5426C11.0938 30.8456 11.0938 21.1486 11.0823 11.4517C11.0823 11.3247 11.0592 11.1977 11.0476 11.0592C8.58874 11.0707 6.17605 11.0707 3.69408 11.0707ZM18.5051 29.4834C27.14 29.4834 35.7287 29.4834 44.3175 29.4834C44.3175 28.2597 44.3175 27.0707 44.3175 25.8586C35.7056 25.8586 27.1169 25.8586 18.5051 25.8586C18.5051 27.0707 18.5051 28.2597 18.5051 29.4834ZM44.3059 33.2583C35.671 33.2583 27.0938 33.2583 18.5166 33.2583C18.5166 34.4935 18.5166 35.6941 18.5166 36.8831C27.14 36.8831 35.7056 36.8831 44.3059 36.8831C44.3059 35.671 44.3059 34.482 44.3059 33.2583Z" fill="#FF7346"/>
</svg>
