<svg width="48" height="48" viewBox="0 0 48 48" fill="none" xmlns="http://www.w3.org/2000/svg">
<g clip-path="url(#clip0_104_8179)">
<path d="M4.8 40.6687C4.8 36.7312 4.8 32.8031 4.8 28.8281C4.64062 28.8188 4.50937 28.8 4.36875 28.8C3.64687 28.7906 2.93438 28.8094 2.2125 28.7906C0.984375 28.7531 0.103125 27.8906 0.009375 26.6625C0 26.5031 0 26.3531 0 26.1937C0 18.3375 0 10.4719 0 2.61562C0 2.3625 0.009375 2.10938 0.05625 1.86562C0.271875 0.759375 1.07812 0.065625 2.2125 0.009375C2.34375 0 2.49375 0 2.63438 0C13.6969 0 24.7594 0 35.8219 0C37.1531 0 38.0062 0.553125 38.2969 1.64062C38.3812 1.95 38.4094 2.2875 38.4094 2.61562C38.4188 10.4719 38.4188 18.3375 38.4094 26.1937C38.4094 27.9469 37.5375 28.8 35.775 28.8C29.6156 28.8 23.4656 28.8 17.3063 28.7906C16.95 28.7906 16.7062 28.8937 16.4531 29.1469C12.7219 32.8875 8.99062 36.6188 5.25937 40.3594C5.1375 40.4813 5.0625 40.6406 4.95938 40.7812C4.90313 40.7438 4.84688 40.7062 4.8 40.6687ZM7.20938 14.3906C7.20938 15.8344 8.1375 16.7812 9.57187 16.7906C11.0344 16.8 12 15.8531 12 14.4094C12 12.9656 11.0344 12 9.58125 12C8.15625 12.0094 7.20938 12.9656 7.20938 14.3906ZM21.5906 14.4C21.5906 12.9656 20.6531 12.0094 19.2188 12C17.775 11.9906 16.7906 12.9656 16.7906 14.4C16.7906 15.8344 17.7656 16.8 19.2188 16.7906C20.6531 16.7906 21.5906 15.8438 21.5906 14.4ZM26.4094 14.3812C26.4 15.825 27.3281 16.7812 28.7625 16.7906C30.2156 16.8 31.2 15.8531 31.2094 14.4188C31.2188 12.9844 30.2438 12 28.8 12C27.3656 12 26.4188 12.9469 26.4094 14.3812Z" fill="#FF7346"/>
<path d="M43.2094 21.6656C44.2031 21.6656 45.1594 21.5625 46.0875 21.6937C47.1562 21.8437 48 22.9781 48 24.0656C48.0094 28.8468 48.0094 33.6281 48 38.4093C48 39.75 46.9688 40.7718 45.6281 40.8C44.85 40.8187 44.0719 40.8 43.2469 40.8C43.2469 43.1812 43.2469 45.5343 43.2469 48C43.0312 47.85 42.9 47.7656 42.7688 47.6718C39.8531 45.4875 36.9375 43.3125 34.0312 41.1187C33.7312 40.8937 33.4312 40.7906 33.0469 40.7906C29.2312 40.8 25.425 40.8 21.6094 40.7906C20.3438 40.7906 19.5094 40.1343 19.2562 39C19.2469 38.9437 19.2188 38.8781 19.2188 38.8125C19.2188 37.0968 19.2188 35.3812 19.2188 33.5906C19.425 33.5906 19.6219 33.5906 19.8187 33.5906C26.6906 33.5906 33.5625 33.5906 40.4437 33.5906C40.7719 33.5906 41.1094 33.5906 41.4187 33.525C42.5437 33.2906 43.1906 32.4 43.2 31.1062C43.2094 28.125 43.2 25.1343 43.2 22.1531C43.2094 21.9937 43.2094 21.825 43.2094 21.6656Z" fill="#FF7346"/>
</g>
<defs>
<clipPath id="clip0_104_8179">
<rect width="48.0094" height="48" fill="white"/>
</clipPath>
</defs>
</svg>
