<svg width="36" height="36" viewBox="0 0 36 36" fill="none" xmlns="http://www.w3.org/2000/svg">
<path d="M20.0006 9.99999C24.2066 9.99999 26.0006 11.794 26.0006 16H30.0006C30.0006 9.54999 26.4506 5.99999 20.0006 5.99999V9.99999ZM26.8446 20.886C26.4603 20.5367 25.9553 20.3504 25.4362 20.3665C24.9171 20.3825 24.4246 20.5996 24.0626 20.972L19.2766 25.894C18.1246 25.674 15.8086 24.952 13.4246 22.574C11.0406 20.188 10.3186 17.866 10.1046 16.722L15.0226 11.934C15.3954 11.5722 15.6128 11.0796 15.6289 10.5604C15.6449 10.0412 15.4583 9.53607 15.1086 9.15199L7.71856 1.02599C7.36865 0.640703 6.88232 0.406998 6.36287 0.374509C5.84342 0.34202 5.33176 0.513306 4.93656 0.85199L0.596564 4.57399C0.250786 4.92102 0.044403 5.38289 0.0165639 5.87199C-0.0134361 6.37199 -0.585436 18.216 8.59856 27.404C16.6106 35.414 26.6466 36 29.4106 36C29.8146 36 30.0626 35.988 30.1286 35.984C30.6176 35.9566 31.0792 35.7493 31.4246 35.402L35.1446 31.06C35.4835 30.665 35.6551 30.1535 35.623 29.6341C35.5909 29.1146 35.3576 28.6282 34.9726 28.278L26.8446 20.886Z" fill="#FF7346"/>
</svg>
