<svg width="40" height="40" viewBox="0 0 40 40" fill="none" xmlns="http://www.w3.org/2000/svg">
<path d="M39.486 20.662L21.486 0.661992C20.728 -0.182008 19.272 -0.182008 18.514 0.661992L0.513968 20.662C0.25488 20.9492 0.0848169 21.3055 0.0244561 21.6875C-0.0359047 22.0696 0.0160375 22.4609 0.173967 22.814C0.493967 23.536 1.20997 24 1.99997 24H5.99997V38C5.99997 38.5304 6.21068 39.0391 6.58575 39.4142C6.96083 39.7893 7.46953 40 7.99997 40H14C14.5304 40 15.0391 39.7893 15.4142 39.4142C15.7893 39.0391 16 38.5304 16 38V30H24V38C24 38.5304 24.2107 39.0391 24.5858 39.4142C24.9608 39.7893 25.4695 40 26 40H32C32.5304 40 33.0391 39.7893 33.4142 39.4142C33.7893 39.0391 34 38.5304 34 38V24H38C38.3873 24.0016 38.7667 23.8906 39.092 23.6803C39.4173 23.47 39.6744 23.1696 39.8319 22.8158C39.9895 22.4619 40.0406 22.0699 39.9792 21.6874C39.9178 21.305 39.7464 20.9487 39.486 20.662Z" fill="#FF7346"/>
</svg>
