<svg width="171" height="38" viewBox="0 0 171 38" fill="none" xmlns="http://www.w3.org/2000/svg">
<g clip-path="url(#clip0_86_213)">
<path d="M11.7338 12.9832L8.29186 9.34155L5.0064 12.6666L8.91766 16.6249H0V21.2166H8.91766L5.0064 25.3332L8.29186 28.6582L11.7338 25.1749C12.6725 24.2249 13.1418 23.1166 13.1418 21.8499V16.4666C13.1418 15.0416 12.6725 13.7749 11.7338 12.9832Z" fill="#FF7346"/>
<path d="M21.4336 24.7H16.1143C14.8627 24.7 13.6111 25.175 12.8289 26.125L9.38696 29.6083L12.516 32.9333L16.4272 28.9749V38H20.9643V28.9749L24.8755 32.9333L28.161 29.6083L24.7191 26.125C23.9368 25.175 22.6852 24.7 21.4336 24.7Z" fill="#FF7346"/>
<path d="M37.5481 16.6249H28.6304L32.5417 12.6666L29.2562 9.34155L25.8143 12.8249C24.8756 13.7749 24.4062 14.8832 24.4062 16.1499V21.5332C24.4062 22.7999 24.8756 24.0666 25.8143 24.8582L29.2562 28.3416L32.5417 25.0166L28.6304 21.0582H37.5481V16.6249Z" fill="#FF7346"/>
<path d="M24.719 11.875L28.1609 8.39167L25.0319 5.06667L21.1207 9.025V0H16.5836V9.025L12.5159 5.06667L9.23047 8.39167L12.6724 11.875C13.6111 12.825 14.7062 13.3 15.9578 13.3H21.2771C22.6852 13.3 23.9368 12.825 24.719 11.875Z" fill="#FF7346"/>
<path d="M52.7236 34.2V3.80005H65.3961C65.709 3.80005 66.0219 3.80005 66.6477 3.80005C67.117 3.80005 67.5864 3.80005 67.8993 3.95838C69.6202 4.27505 71.1847 4.90838 72.2799 5.70005C73.375 6.65005 74.3137 7.75838 74.7831 9.18338C75.2524 10.6084 75.5653 12.0334 75.5653 13.775C75.5653 16.3084 74.9395 18.525 73.6879 20.2667C72.4363 22.0084 70.4025 23.1167 67.7428 23.5917L65.2396 23.75H58.1994V34.0417H52.7236V34.2ZM58.3558 18.525H65.0832C65.3961 18.525 65.709 18.525 66.0219 18.525C66.3348 18.525 66.6477 18.3667 66.9606 18.3667C67.7428 18.2084 68.3686 17.7334 68.6815 17.2584C69.1509 16.7834 69.4638 16.15 69.6202 15.5167C69.7767 14.8834 69.9331 14.25 69.9331 13.775C69.9331 13.3 69.7767 12.6667 69.6202 12.0334C69.4638 11.4 69.1509 10.925 68.6815 10.2917C68.2122 9.81672 67.7428 9.50005 66.9606 9.18338C66.6477 9.02505 66.3348 9.02505 66.0219 9.02505C65.709 9.02505 65.3961 9.02505 65.0832 9.02505H58.3558V18.525ZM69.6202 34.2L63.6751 21.85L69.4638 20.7417L76.0347 34.2H69.6202Z" fill="#1C272A"/>
<path d="M93.5572 34.8334C90.5846 34.8334 87.925 34.2001 85.7347 32.7751C83.5444 31.5084 81.8234 29.6084 80.7283 27.2334C79.4767 24.8584 79.0073 22.1667 79.0073 19.0001C79.0073 15.8334 79.6331 13.1417 80.7283 10.7667C81.8234 8.39175 83.5444 6.49175 85.7347 5.22508C87.925 3.95841 90.4282 3.16675 93.5572 3.16675C96.6862 3.16675 99.1894 3.80008 101.38 5.22508C103.57 6.49175 105.291 8.39175 106.386 10.7667C107.481 13.1417 108.107 15.8334 108.107 19.0001C108.107 22.1667 107.481 24.8584 106.386 27.2334C105.134 29.6084 103.57 31.5084 101.38 32.7751C99.0329 34.2001 96.5297 34.8334 93.5572 34.8334ZM93.5572 29.4501C95.4346 29.4501 96.9991 29.1334 98.2507 28.1834C99.5023 27.2334 100.441 26.1251 101.067 24.5417C101.693 22.9584 102.005 21.0584 102.005 19.0001C102.005 16.9417 101.693 15.0417 101.067 13.4584C100.441 11.8751 99.5023 10.7667 98.2507 9.81675C96.9991 9.02508 95.4346 8.55008 93.5572 8.55008C91.6798 8.55008 90.1153 8.86675 88.8637 9.81675C87.6121 10.6084 86.6734 11.8751 86.0476 13.4584C85.4218 15.0417 85.1089 16.9417 85.1089 19.0001C85.1089 21.0584 85.4218 22.9584 86.0476 24.5417C86.6734 26.1251 87.6121 27.2334 88.8637 28.1834C89.9588 28.9751 91.6798 29.4501 93.5572 29.4501Z" fill="#1C272A"/>
<path d="M112.644 34.2V3.80005H118.276V34.2H112.644Z" fill="#1C272A"/>
<path d="M130.792 22.1667C130.166 22.1667 129.541 22.0083 129.071 21.85C128.602 21.6917 128.133 21.375 127.663 20.9C127.35 20.425 127.037 19.95 126.725 19.3167C126.568 18.6833 126.412 18.05 126.412 17.2583C126.412 16.3083 126.568 15.3583 127.037 14.5667C127.35 13.775 127.976 13.3 128.602 12.825C129.228 12.35 130.01 12.1917 130.792 12.1917C131.887 12.1917 132.826 12.5083 133.452 12.9833C134.078 13.4583 134.547 14.25 134.703 15.2L133.295 15.5167C133.139 14.8833 132.826 14.5667 132.357 14.0917C131.887 13.775 131.418 13.6167 130.792 13.6167C130.166 13.6167 129.541 13.775 129.071 14.0917C128.602 14.4083 128.289 14.8833 128.133 15.3583C127.976 15.8333 127.82 16.4667 127.82 17.2583C127.82 18.05 127.976 18.6833 128.133 19.1583C128.289 19.6333 128.758 20.1083 129.071 20.425C129.384 20.7417 130.01 20.9 130.792 20.9C131.262 20.9 131.731 20.7417 132.2 20.5833C132.513 20.425 132.826 20.1083 133.139 19.6333C133.295 19.1583 133.452 18.6833 133.608 18.2083H131.731V17.1H135.016C135.016 17.1 135.016 17.2583 135.016 17.4167C135.016 17.575 135.016 17.575 135.016 17.7333C135.016 18.6833 134.86 19.3167 134.547 20.1083C134.234 20.7417 133.765 21.375 133.139 21.6917C132.513 22.0083 131.574 22.1667 130.792 22.1667Z" fill="#1C272A"/>
<path d="M136.268 22.0083V14.8833H137.52V16.625L137.363 16.4666C137.52 16.3083 137.52 15.9916 137.676 15.8333C137.833 15.675 137.989 15.5166 138.145 15.3583C138.302 15.2 138.458 15.2 138.771 15.0416C138.928 15.0416 139.241 14.8833 139.397 14.8833C139.554 14.8833 139.866 14.8833 140.023 14.8833V16.15C139.866 16.15 139.554 16.15 139.241 16.15C138.928 16.15 138.771 16.3083 138.458 16.4666C138.302 16.625 137.989 16.7833 137.989 16.9416C137.833 17.1 137.833 17.4166 137.676 17.575C137.52 17.7333 137.676 18.05 137.676 18.3666V22.0083H136.268Z" fill="#1C272A"/>
<path d="M144.247 22.1668C143.621 22.1668 142.995 22.0084 142.369 21.6918C141.9 21.3751 141.431 20.9001 141.118 20.4251C140.805 19.9501 140.805 19.1584 140.805 18.3668C140.805 17.5751 140.961 16.9418 141.274 16.4668C141.587 15.8334 141.9 15.5168 142.526 15.2001C142.995 14.8834 143.621 14.7251 144.403 14.7251C145.029 14.7251 145.655 14.8834 146.281 15.2001C146.75 15.5168 147.219 15.9918 147.532 16.4668C147.845 17.1001 148.002 17.7334 148.002 18.3668C148.002 19.1584 147.845 19.7918 147.532 20.2668C147.219 20.7418 146.906 21.2168 146.281 21.5334C145.655 21.8501 145.029 22.1668 144.247 22.1668ZM144.247 20.9001C144.873 20.9001 145.498 20.7418 145.811 20.2668C146.124 19.7918 146.281 19.1584 146.281 18.5251C146.281 17.7334 146.124 17.2584 145.811 16.7834C145.498 16.3084 145.029 16.1501 144.247 16.1501C143.777 16.1501 143.465 16.3084 143.152 16.4668C142.839 16.6251 142.682 16.9418 142.526 17.2584C142.369 17.5751 142.369 18.0501 142.369 18.5251C142.369 19.3168 142.526 19.7918 142.839 20.2668C143.152 20.5834 143.621 20.9001 144.247 20.9001Z" fill="#1C272A"/>
<path d="M150.349 22.0083L148.158 14.8833H149.566L150.974 19.7916L152.382 14.8833H153.478L154.886 19.7916L156.294 14.8833H157.702L155.511 22.0083H154.416L152.852 16.7833L151.131 22.0083H150.349Z" fill="#1C272A"/>
<path d="M158.327 15.9917V14.8834H163.177V15.9917H158.327ZM163.177 22.0084C162.708 22.1667 162.239 22.1667 161.926 22.1667C161.456 22.1667 161.144 22.0084 160.831 21.8501C160.518 21.6917 160.205 21.3751 160.048 21.0584C159.892 20.7417 159.892 20.4251 159.735 20.1084C159.579 19.7917 159.735 19.4751 159.735 19.0001V12.6667H161.143V18.8417C161.143 19.1584 161.143 19.3167 161.143 19.6334C161.143 19.9501 161.143 19.9501 161.3 20.1084C161.456 20.4251 161.769 20.5834 162.082 20.5834C162.395 20.5834 162.864 20.5834 163.334 20.5834V22.0084H163.177Z" fill="#1C272A"/>
<path d="M164.585 22.0083V12.5083H165.837V17.575H165.994V22.0083H164.585ZM169.592 22.0083V18.525C169.592 18.2083 169.592 17.8916 169.592 17.7333C169.592 17.4166 169.435 17.1 169.279 16.9416C169.123 16.625 168.966 16.4666 168.81 16.3083C168.653 16.15 168.34 16.15 167.871 16.15C167.558 16.15 167.402 16.15 167.245 16.3083C167.089 16.4666 166.776 16.4666 166.619 16.625C166.463 16.7833 166.306 17.1 166.306 17.2583C166.306 17.4166 166.15 17.8916 166.15 18.3666L165.368 18.05C165.368 17.4166 165.524 16.7833 165.681 16.3083C165.994 15.8333 166.306 15.3583 166.776 15.2C167.245 15.0416 167.714 14.725 168.34 14.725C168.81 14.725 169.279 14.725 169.592 14.8833C169.905 15.0416 170.218 15.2 170.374 15.5166C170.531 15.8333 170.687 15.9916 170.843 16.3083C171 16.625 171 16.9416 171 17.2583C171 17.575 171 17.7333 171 18.05V22.0083H169.592Z" fill="#1C272A"/>
<path d="M126.881 34.675V25.175H128.132L131.574 32.3L135.016 25.175H136.111V34.675H134.86V28.1834L131.887 34.675H131.261L128.289 28.1834V34.675H126.881Z" fill="#1C272A"/>
<path d="M141.118 34.8333C140.492 34.8333 139.866 34.6749 139.24 34.3583C138.771 34.0416 138.302 33.5666 137.989 33.0916C137.676 32.6166 137.52 31.8249 137.52 31.1916C137.52 30.3999 137.676 29.7666 137.989 29.1333C138.302 28.4999 138.615 28.1833 139.24 27.8666C139.71 27.5499 140.336 27.3916 141.118 27.3916C141.9 27.3916 142.369 27.5499 142.995 27.8666C143.465 28.1833 143.934 28.6583 144.09 29.2916C144.403 29.9249 144.403 30.7166 144.403 31.5083H142.995V31.0333C142.995 30.2416 142.839 29.6083 142.526 29.1333C142.213 28.6583 141.744 28.4999 141.118 28.4999C140.492 28.4999 139.866 28.6583 139.553 29.1333C139.24 29.6083 139.084 30.2416 139.084 31.0333C139.084 31.8249 139.24 32.4583 139.553 32.7749C139.866 33.0916 140.336 33.4083 140.961 33.4083C141.431 33.4083 141.744 33.2499 142.057 33.0916C142.369 32.9333 142.682 32.6166 142.839 32.2999L144.247 32.7749C143.934 33.4083 143.621 33.8833 142.995 34.1999C142.369 34.6749 141.744 34.8333 141.118 34.8333ZM138.615 31.5083V30.3999H143.621V31.5083H138.615Z" fill="#1C272A"/>
<path d="M148.471 34.8334C147.845 34.8334 147.219 34.6751 146.75 34.3584C146.281 34.0417 145.968 33.5667 145.655 33.0917C145.342 32.4584 145.342 31.8251 145.342 31.1917C145.342 30.4001 145.498 29.7667 145.655 29.2917C145.968 28.6584 146.281 28.3417 146.75 28.0251C147.219 27.7084 147.845 27.55 148.471 27.55C149.097 27.55 149.723 27.7084 150.192 28.0251C150.661 28.3417 150.974 28.8167 151.287 29.2917C151.444 29.925 151.6 30.5584 151.6 31.1917C151.6 31.8251 151.444 32.6167 151.287 33.0917C151.131 33.725 150.661 34.0417 150.192 34.3584C149.723 34.6751 149.253 34.8334 148.471 34.8334ZM148.784 33.5667C149.253 33.5667 149.566 33.4084 149.879 33.2501C150.192 33.0917 150.348 32.775 150.505 32.3C150.661 31.9834 150.661 31.5084 150.661 31.0334C150.661 30.5584 150.661 30.0834 150.505 29.7667C150.348 29.45 150.192 29.1334 149.879 28.8167C149.566 28.6584 149.253 28.5 148.784 28.5C148.315 28.5 148.002 28.6584 147.689 28.8167C147.376 28.9751 147.219 29.2917 147.063 29.7667C146.907 30.2417 146.907 30.5584 146.907 31.0334C146.907 31.5084 146.907 31.9834 147.063 32.3C147.219 32.6167 147.376 32.9334 147.689 33.2501C147.845 33.4084 148.315 33.5667 148.784 33.5667ZM150.661 34.675V29.6084H150.505V25.175H151.756V34.675H150.661Z" fill="#1C272A"/>
<path d="M153.79 26.2833V25.0166H155.198V26.2833H153.79ZM153.79 34.6749V27.5499H155.198V34.6749H153.79Z" fill="#1C272A"/>
<path d="M159.11 34.8333C158.64 34.8333 158.171 34.6749 157.858 34.5166C157.545 34.3583 157.232 34.0416 157.076 33.7249C156.919 33.4083 156.763 33.0916 156.763 32.6166C156.763 32.2999 156.763 31.9833 156.919 31.6666C157.076 31.3499 157.232 31.1916 157.545 31.0333C157.858 30.8749 158.171 30.7166 158.484 30.5583C158.797 30.3999 159.11 30.3999 159.579 30.2416C160.048 30.2416 160.361 30.0833 160.831 30.0833C161.3 30.0833 161.769 29.9249 162.082 29.9249L161.613 30.2416C161.613 29.6083 161.456 29.2916 161.3 28.9749C160.987 28.6583 160.674 28.4999 160.048 28.4999C159.736 28.4999 159.266 28.6583 159.11 28.8166C158.797 28.9749 158.64 29.2916 158.484 29.6083L157.232 29.2916C157.389 28.6583 157.702 28.1833 158.171 27.8666C158.64 27.5499 159.266 27.3916 160.048 27.3916C160.674 27.3916 161.3 27.5499 161.613 27.7083C162.082 27.8666 162.395 28.3416 162.708 28.8166C162.864 28.9749 162.864 29.2916 162.864 29.6083C162.864 29.9249 162.864 30.0833 162.864 30.3999V34.8333H161.613V33.2499L161.769 33.4083C161.456 33.8833 161.144 34.3583 160.674 34.6749C160.205 34.6749 159.735 34.8333 159.11 34.8333ZM159.266 33.7249C159.579 33.7249 160.048 33.7249 160.205 33.5666C160.518 33.4083 160.674 33.2499 160.831 33.0916C160.987 32.9333 161.144 32.6166 161.144 32.4583C161.144 32.2999 161.3 31.9833 161.3 31.8249C161.3 31.5083 161.3 31.3499 161.3 31.1916L161.769 31.3499C161.3 31.3499 160.987 31.5083 160.674 31.5083C160.361 31.5083 160.048 31.6666 159.735 31.6666C159.423 31.6666 159.266 31.8249 158.953 31.8249C158.797 31.8249 158.64 31.9833 158.484 32.1416C158.327 32.2999 158.171 32.2999 158.171 32.4583C158.171 32.6166 158.015 32.7749 158.015 32.9333C158.015 33.0916 158.015 33.2499 158.171 33.4083C158.327 33.5666 158.327 33.7249 158.64 33.7249C158.797 33.5666 158.953 33.7249 159.266 33.7249Z" fill="#1C272A"/>
</g>
<defs>
<clipPath id="clip0_86_213">
<rect width="171" height="38" fill="white"/>
</clipPath>
</defs>
</svg>
