<svg width="153" height="34" viewBox="0 0 153 34" fill="none" xmlns="http://www.w3.org/2000/svg">
<g clip-path="url(#clip0_104_9184)">
<path d="M10.4986 11.6167L7.41903 8.3584L4.47941 11.3334L7.97896 14.8751H0V18.9834H7.97896L4.47941 22.6667L7.41903 25.6417L10.4986 22.5251C11.3385 21.6751 11.7585 20.6834 11.7585 19.5501V14.7334C11.7585 13.4584 11.3385 12.3251 10.4986 11.6167Z" fill="#FF7346"/>
<path d="M19.1774 22.1001H14.418C13.2982 22.1001 12.1783 22.5251 11.4784 23.3751L8.3988 26.4918L11.1984 29.4668L14.698 25.9251V34.0001H18.7575V25.9251L22.257 29.4668L25.1966 26.4918L22.117 23.3751C21.4171 22.5251 20.2972 22.1001 19.1774 22.1001Z" fill="#FF7346"/>
<path d="M33.5956 14.8751H25.6167L29.1162 11.3334L26.1766 8.3584L23.097 11.4751C22.2571 12.3251 21.8372 13.3167 21.8372 14.4501V19.2667C21.8372 20.4001 22.2571 21.5334 23.097 22.2417L26.1766 25.3584L29.1162 22.3834L25.6167 18.8417H33.5956V14.8751Z" fill="#FF7346"/>
<path d="M22.117 10.625L25.1966 7.50833L22.3969 4.53333L18.8974 8.075V0H14.8379V8.075L11.1984 4.53333L8.25879 7.50833L11.3384 10.625C12.1783 11.475 13.1581 11.9 14.278 11.9H19.0374C20.2972 11.9 21.4171 11.475 22.117 10.625Z" fill="#FF7346"/>
<path d="M47.1738 30.5999V3.3999H58.5123C58.7923 3.3999 59.0723 3.3999 59.6322 3.3999C60.0521 3.3999 60.4721 3.3999 60.7521 3.54157C62.2919 3.8249 63.6917 4.39157 64.6715 5.0999C65.6514 5.9499 66.4913 6.94157 66.9112 8.21657C67.3312 9.49157 67.6112 10.7666 67.6112 12.3249C67.6112 14.5916 67.0512 16.5749 65.9314 18.1332C64.8115 19.6916 62.9918 20.6832 60.6121 21.1082L58.3724 21.2499H52.0732V30.4582H47.1738V30.5999ZM52.2132 16.5749H58.2324C58.5123 16.5749 58.7923 16.5749 59.0723 16.5749C59.3522 16.5749 59.6322 16.4332 59.9122 16.4332C60.6121 16.2916 61.172 15.8666 61.452 15.4416C61.8719 15.0166 62.1519 14.4499 62.2919 13.8832C62.4318 13.3166 62.5718 12.7499 62.5718 12.3249C62.5718 11.8999 62.4318 11.3332 62.2919 10.7666C62.1519 10.1999 61.8719 9.7749 61.452 9.20823C61.032 8.78324 60.6121 8.4999 59.9122 8.21657C59.6322 8.0749 59.3522 8.0749 59.0723 8.0749C58.7923 8.0749 58.5123 8.0749 58.2324 8.0749H52.2132V16.5749ZM62.2919 30.5999L56.9725 19.5499L62.1519 18.5582L68.0311 30.5999H62.2919Z" fill="#FDFEFF"/>
<path d="M83.7091 31.1663C81.0494 31.1663 78.6698 30.5997 76.71 29.3247C74.7503 28.1913 73.2105 26.4913 72.2306 24.3663C71.1107 22.2413 70.6908 19.833 70.6908 16.9997C70.6908 14.1663 71.2507 11.758 72.2306 9.63301C73.2105 7.50801 74.7503 5.80801 76.71 4.67467C78.6698 3.54134 80.9095 2.83301 83.7091 2.83301C86.5087 2.83301 88.7484 3.39967 90.7082 4.67467C92.6679 5.80801 94.2077 7.50801 95.1876 9.63301C96.1675 11.758 96.7274 14.1663 96.7274 16.9997C96.7274 19.833 96.1675 22.2413 95.1876 24.3663C94.0677 26.4913 92.6679 28.1913 90.7082 29.3247C88.6085 30.5997 86.3687 31.1663 83.7091 31.1663ZM83.7091 26.3497C85.3889 26.3497 86.7887 26.0663 87.9085 25.2163C89.0284 24.3663 89.8683 23.3747 90.4282 21.958C90.9881 20.5413 91.2681 18.8413 91.2681 16.9997C91.2681 15.158 90.9881 13.458 90.4282 12.0413C89.8683 10.6247 89.0284 9.63301 87.9085 8.78301C86.7887 8.07467 85.3889 7.64967 83.7091 7.64967C82.0293 7.64967 80.6295 7.93301 79.5096 8.78301C78.3898 9.49134 77.5499 10.6247 76.99 12.0413C76.43 13.458 76.1501 15.158 76.1501 16.9997C76.1501 18.8413 76.43 20.5413 76.99 21.958C77.5499 23.3747 78.3898 24.3663 79.5096 25.2163C80.4895 25.9247 82.0293 26.3497 83.7091 26.3497Z" fill="#FDFEFF"/>
<path d="M100.787 30.5999V3.3999H105.826V30.5999H100.787Z" fill="#FDFEFF"/>
<path d="M117.025 19.8332C116.465 19.8332 115.905 19.6915 115.485 19.5499C115.065 19.4082 114.645 19.1249 114.225 18.6999C113.945 18.2749 113.665 17.8499 113.385 17.2832C113.245 16.7165 113.105 16.1499 113.105 15.4415C113.105 14.5915 113.245 13.7415 113.665 13.0332C113.945 12.3249 114.505 11.8999 115.065 11.4749C115.625 11.0499 116.325 10.9082 117.025 10.9082C118.004 10.9082 118.844 11.1915 119.404 11.6165C119.964 12.0415 120.384 12.7499 120.524 13.5999L119.264 13.8832C119.124 13.3165 118.844 13.0332 118.424 12.6082C118.004 12.3249 117.585 12.1832 117.025 12.1832C116.465 12.1832 115.905 12.3249 115.485 12.6082C115.065 12.8915 114.785 13.3165 114.645 13.7415C114.505 14.1665 114.365 14.7332 114.365 15.4415C114.365 16.1499 114.505 16.7165 114.645 17.1415C114.785 17.5665 115.205 17.9915 115.485 18.2749C115.765 18.5582 116.325 18.6999 117.025 18.6999C117.445 18.6999 117.864 18.5582 118.284 18.4165C118.564 18.2749 118.844 17.9915 119.124 17.5665C119.264 17.1415 119.404 16.7165 119.544 16.2915H117.864V15.2999H120.804C120.804 15.2999 120.804 15.4415 120.804 15.5832C120.804 15.7249 120.804 15.7249 120.804 15.8665C120.804 16.7165 120.664 17.2832 120.384 17.9915C120.104 18.5582 119.684 19.1249 119.124 19.4082C118.564 19.6915 117.724 19.8332 117.025 19.8332Z" fill="#FDFEFF"/>
<path d="M121.924 19.6914V13.3164H123.044V14.8747L122.904 14.7331C123.044 14.5914 123.044 14.3081 123.184 14.1664C123.324 14.0247 123.464 13.8831 123.604 13.7414C123.744 13.5997 123.884 13.5997 124.164 13.4581C124.304 13.4581 124.584 13.3164 124.724 13.3164C124.864 13.3164 125.144 13.3164 125.284 13.3164V14.4497C125.144 14.4497 124.864 14.4497 124.584 14.4497C124.304 14.4497 124.164 14.5914 123.884 14.7331C123.744 14.8747 123.464 15.0164 123.464 15.1581C123.324 15.2997 123.324 15.5831 123.184 15.7247C123.044 15.8664 123.184 16.1497 123.184 16.4331V19.6914H121.924Z" fill="#FDFEFF"/>
<path d="M129.063 19.8331C128.503 19.8331 127.943 19.6915 127.383 19.4081C126.963 19.1248 126.543 18.6998 126.263 18.2748C125.983 17.8498 125.983 17.1415 125.983 16.4331C125.983 15.7248 126.123 15.1581 126.403 14.7331C126.683 14.1665 126.963 13.8831 127.523 13.5998C127.943 13.3165 128.503 13.1748 129.203 13.1748C129.763 13.1748 130.323 13.3165 130.883 13.5998C131.303 13.8831 131.723 14.3081 132.003 14.7331C132.283 15.2998 132.423 15.8665 132.423 16.4331C132.423 17.1415 132.283 17.7081 132.003 18.1331C131.723 18.5581 131.443 18.9831 130.883 19.2665C130.323 19.5498 129.763 19.8331 129.063 19.8331ZM129.063 18.6998C129.623 18.6998 130.183 18.5581 130.463 18.1331C130.743 17.7081 130.883 17.1415 130.883 16.5748C130.883 15.8665 130.743 15.4415 130.463 15.0165C130.183 14.5915 129.763 14.4498 129.063 14.4498C128.643 14.4498 128.363 14.5915 128.083 14.7331C127.803 14.8748 127.663 15.1581 127.523 15.4415C127.383 15.7248 127.383 16.1498 127.383 16.5748C127.383 17.2831 127.523 17.7081 127.803 18.1331C128.083 18.4165 128.503 18.6998 129.063 18.6998Z" fill="#FDFEFF"/>
<path d="M134.522 19.6914L132.562 13.3164H133.822L135.082 17.7081L136.342 13.3164H137.322L138.582 17.7081L139.842 13.3164H141.101L139.142 19.6914H138.162L136.762 15.0164L135.222 19.6914H134.522Z" fill="#FDFEFF"/>
<path d="M141.661 14.308V13.3163H146.001V14.308H141.661ZM146.001 19.6913C145.581 19.833 145.161 19.833 144.881 19.833C144.461 19.833 144.181 19.6913 143.901 19.5497C143.621 19.408 143.341 19.1247 143.201 18.8413C143.061 18.558 143.061 18.2747 142.921 17.9913C142.781 17.708 142.921 17.4247 142.921 16.9997V11.333H144.181V16.858C144.181 17.1413 144.181 17.283 144.181 17.5663C144.181 17.8497 144.181 17.8497 144.321 17.9913C144.461 18.2747 144.741 18.4163 145.021 18.4163C145.301 18.4163 145.721 18.4163 146.141 18.4163V19.6913H146.001Z" fill="#FDFEFF"/>
<path d="M147.26 19.6914V11.1914H148.38V15.7247H148.52V19.6914H147.26ZM151.74 19.6914V16.5747C151.74 16.2914 151.74 16.0081 151.74 15.8664C151.74 15.5831 151.6 15.2997 151.46 15.1581C151.32 14.8747 151.18 14.7331 151.04 14.5914C150.9 14.4497 150.62 14.4497 150.2 14.4497C149.92 14.4497 149.78 14.4497 149.64 14.5914C149.5 14.7331 149.22 14.7331 149.08 14.8747C148.94 15.0164 148.8 15.2997 148.8 15.4414C148.8 15.5831 148.66 16.0081 148.66 16.4331L147.96 16.1497C147.96 15.5831 148.1 15.0164 148.24 14.5914C148.52 14.1664 148.8 13.7414 149.22 13.5997C149.64 13.4581 150.06 13.1747 150.62 13.1747C151.04 13.1747 151.46 13.1747 151.74 13.3164C152.02 13.4581 152.3 13.5997 152.44 13.8831C152.58 14.1664 152.72 14.3081 152.86 14.5914C153 14.8747 153 15.1581 153 15.4414C153 15.7247 153 15.8664 153 16.1497V19.6914H151.74Z" fill="#FDFEFF"/>
<path d="M113.525 31.0249V22.5249H114.645L117.724 28.8999L120.804 22.5249H121.784V31.0249H120.664V25.2166L118.004 31.0249H117.444L114.785 25.2166V31.0249H113.525Z" fill="#FDFEFF"/>
<path d="M126.263 31.1666C125.703 31.1666 125.143 31.025 124.583 30.7416C124.164 30.4583 123.744 30.0333 123.464 29.6083C123.184 29.1833 123.044 28.475 123.044 27.9083C123.044 27.2 123.184 26.6333 123.464 26.0666C123.744 25.5 124.024 25.2166 124.583 24.9333C125.003 24.65 125.563 24.5083 126.263 24.5083C126.963 24.5083 127.383 24.65 127.943 24.9333C128.363 25.2166 128.783 25.6416 128.923 26.2083C129.203 26.775 129.203 27.4833 129.203 28.1916H127.943V27.7666C127.943 27.0583 127.803 26.4916 127.523 26.0666C127.243 25.6416 126.823 25.5 126.263 25.5C125.703 25.5 125.143 25.6416 124.863 26.0666C124.583 26.4916 124.444 27.0583 124.444 27.7666C124.444 28.475 124.583 29.0416 124.863 29.325C125.143 29.6083 125.563 29.8916 126.123 29.8916C126.543 29.8916 126.823 29.75 127.103 29.6083C127.383 29.4666 127.663 29.1833 127.803 28.9L129.063 29.325C128.783 29.8916 128.503 30.3166 127.943 30.6C127.383 31.025 126.823 31.1666 126.263 31.1666ZM124.024 28.1916V27.2H128.503V28.1916H124.024Z" fill="#FDFEFF"/>
<path d="M132.843 31.1666C132.283 31.1666 131.723 31.0249 131.303 30.7416C130.883 30.4582 130.603 30.0332 130.323 29.6082C130.043 29.0416 130.043 28.4749 130.043 27.9082C130.043 27.1999 130.183 26.6332 130.323 26.2082C130.603 25.6416 130.883 25.3582 131.303 25.0749C131.723 24.7916 132.283 24.6499 132.843 24.6499C133.403 24.6499 133.962 24.7916 134.382 25.0749C134.802 25.3582 135.082 25.7832 135.362 26.2082C135.502 26.7749 135.642 27.3416 135.642 27.9082C135.642 28.4749 135.502 29.1832 135.362 29.6082C135.222 30.1749 134.802 30.4582 134.382 30.7416C133.962 31.0249 133.543 31.1666 132.843 31.1666ZM133.123 30.0332C133.543 30.0332 133.822 29.8916 134.102 29.7499C134.382 29.6082 134.522 29.3249 134.662 28.8999C134.802 28.6166 134.802 28.1916 134.802 27.7666C134.802 27.3416 134.802 26.9166 134.662 26.6332C134.522 26.3499 134.382 26.0666 134.102 25.7832C133.822 25.6416 133.543 25.4999 133.123 25.4999C132.703 25.4999 132.423 25.6416 132.143 25.7832C131.863 25.9249 131.723 26.2082 131.583 26.6332C131.443 27.0582 131.443 27.3416 131.443 27.7666C131.443 28.1916 131.443 28.6166 131.583 28.8999C131.723 29.1832 131.863 29.4666 132.143 29.7499C132.283 29.8916 132.703 30.0332 133.123 30.0332ZM134.802 31.0249V26.4916H134.662V22.5249H135.782V31.0249H134.802Z" fill="#FDFEFF"/>
<path d="M137.602 23.5166V22.3833H138.862V23.5166H137.602ZM137.602 31.025V24.65H138.862V31.025H137.602Z" fill="#FDFEFF"/>
<path d="M142.361 31.1666C141.941 31.1666 141.521 31.025 141.241 30.8833C140.961 30.7416 140.681 30.4583 140.541 30.175C140.401 29.8916 140.261 29.6083 140.261 29.1833C140.261 28.9 140.261 28.6166 140.401 28.3333C140.541 28.05 140.681 27.9083 140.961 27.7666C141.241 27.625 141.521 27.4833 141.801 27.3416C142.081 27.2 142.361 27.2 142.781 27.0583C143.201 27.0583 143.481 26.9166 143.901 26.9166C144.321 26.9166 144.741 26.775 145.021 26.775L144.601 27.0583C144.601 26.4916 144.461 26.2083 144.321 25.925C144.041 25.6416 143.761 25.5 143.201 25.5C142.921 25.5 142.501 25.6416 142.361 25.7833C142.081 25.925 141.941 26.2083 141.801 26.4916L140.681 26.2083C140.821 25.6416 141.101 25.2166 141.521 24.9333C141.941 24.65 142.501 24.5083 143.201 24.5083C143.761 24.5083 144.321 24.65 144.601 24.7916C145.021 24.9333 145.301 25.3583 145.581 25.7833C145.721 25.925 145.721 26.2083 145.721 26.4916C145.721 26.775 145.721 26.9166 145.721 27.2V31.1666H144.601V29.75L144.741 29.8916C144.461 30.3166 144.181 30.7416 143.761 31.025C143.341 31.025 142.921 31.1666 142.361 31.1666ZM142.501 30.175C142.781 30.175 143.201 30.175 143.341 30.0333C143.621 29.8916 143.761 29.75 143.901 29.6083C144.041 29.4666 144.181 29.1833 144.181 29.0416C144.181 28.9 144.321 28.6166 144.321 28.475C144.321 28.1916 144.321 28.05 144.321 27.9083L144.741 28.05C144.321 28.05 144.041 28.1916 143.761 28.1916C143.481 28.1916 143.201 28.3333 142.921 28.3333C142.641 28.3333 142.501 28.475 142.221 28.475C142.081 28.475 141.941 28.6166 141.801 28.7583C141.661 28.9 141.521 28.9 141.521 29.0416C141.521 29.1833 141.381 29.325 141.381 29.4666C141.381 29.6083 141.381 29.75 141.521 29.8916C141.661 30.0333 141.661 30.175 141.941 30.175C142.081 30.0333 142.221 30.175 142.501 30.175Z" fill="#FDFEFF"/>
</g>
<defs>
<clipPath id="clip0_104_9184">
<rect width="153" height="34" fill="white"/>
</clipPath>
</defs>
</svg>
