<svg width="48" height="48" viewBox="0 0 48 48" fill="none" xmlns="http://www.w3.org/2000/svg">
<path d="M18 43.24L18.66 38.1C18.9446 35.9033 19.9506 33.8632 21.52 32.3L32.88 20.92C34.2882 19.5495 36.0691 18.6244 38 18.26V12C38 10.6868 37.7413 9.38642 37.2388 8.17317C36.7362 6.95991 35.9997 5.85752 35.0711 4.92893C34.1425 4.00035 33.0401 3.26375 31.8268 2.7612C30.6136 2.25866 29.3132 2 28 2H12C10.6868 2 9.38642 2.25866 8.17317 2.7612C6.95991 3.26375 5.85752 4.00035 4.92893 4.92893C3.05357 6.8043 2 9.34784 2 12V36C2 37.3132 2.25866 38.6136 2.7612 39.8268C3.26375 41.0401 4.00035 42.1425 4.92893 43.0711C6.8043 44.9464 9.34784 46 12 46H18.36C18.0208 45.1221 17.8974 44.1756 18 43.24ZM10 14H26C26.5304 14 27.0391 14.2107 27.4142 14.5858C27.7893 14.9609 28 15.4696 28 16C28 16.5304 27.7893 17.0391 27.4142 17.4142C27.0391 17.7893 26.5304 18 26 18H10C9.46957 18 8.96086 17.7893 8.58579 17.4142C8.21071 17.0391 8 16.5304 8 16C8 15.4696 8.21071 14.9609 8.58579 14.5858C8.96086 14.2107 9.46957 14 10 14ZM10 22H22C22.5304 22 23.0391 22.2107 23.4142 22.5858C23.7893 22.9609 24 23.4696 24 24C24 24.5304 23.7893 25.0391 23.4142 25.4142C23.0391 25.7893 22.5304 26 22 26H10C9.46957 26 8.96086 25.7893 8.58579 25.4142C8.21071 25.0391 8 24.5304 8 24C8 23.4696 8.21071 22.9609 8.58579 22.5858C8.96086 22.2107 9.46957 22 10 22ZM14 34H10C9.46957 34 8.96086 33.7893 8.58579 33.4142C8.21071 33.0391 8 32.5304 8 32C8 31.4696 8.21071 30.9609 8.58579 30.5858C8.96086 30.2107 9.46957 30 10 30H14C14.5304 30 15.0391 30.2107 15.4142 30.5858C15.7893 30.9609 16 31.4696 16 32C16 32.5304 15.7893 33.0391 15.4142 33.4142C15.0391 33.7893 14.5304 34 14 34ZM44.24 32.24L32.86 43.62C31.9262 44.5647 30.6991 45.1641 29.38 45.32L24.26 46H24C23.714 46.0024 23.4308 45.9435 23.1694 45.8271C22.9081 45.7108 22.6748 45.5397 22.4853 45.3255C22.2957 45.1113 22.1543 44.8589 22.0706 44.5854C21.9869 44.3119 21.9628 44.0236 22 43.74L22.66 38.62C22.8159 37.3008 23.4153 36.0738 24.36 35.14L35.74 23.76C36.8846 22.674 38.4022 22.0686 39.98 22.0686C41.5578 22.0686 43.0754 22.674 44.22 23.76C45.3463 24.8824 45.981 26.4059 45.9847 27.9959C45.9885 29.5859 45.361 31.1124 44.24 32.24Z" fill="#FF7346"/>
</svg>
