<svg width="48" height="48" viewBox="0 0 48 48" fill="none" xmlns="http://www.w3.org/2000/svg">
<g clip-path="url(#clip0_104_7900)">
<path d="M7.96486 20.0176C6.64129 20.0176 5.38799 20.0059 4.14641 20.0293C3.98243 20.0293 3.80673 20.1816 3.67789 20.3104C2.61201 21.3646 1.54612 22.4305 0.480234 23.4963C0.351391 23.6252 0.210835 23.7423 0 23.9414C0 18.5886 0 13.3529 0 8.03514C2.62372 8.03514 5.23572 8.03514 7.92972 8.03514C7.94143 7.75403 7.96486 7.5549 7.96486 7.34407C7.96486 6.2899 7.95315 5.23572 7.96486 4.18155C8 1.68668 9.69839 0 12.1933 0C20.041 0 27.8887 0 35.7365 0C38.0791 0 39.836 1.52269 39.918 3.7716C40.0117 6.47731 39.9414 9.19473 39.9414 12.0059C39.672 12.0059 39.4378 12.0059 39.1918 12.0059C38.2899 12.0059 37.3997 11.9824 36.4978 12.0176C36.041 12.0293 35.9473 11.8653 35.9473 11.4436C35.9707 9.19473 35.959 6.95754 35.959 4.70864C35.959 4.4978 35.959 4.28697 35.959 4.02928C27.9707 4.02928 20.0293 4.02928 12.041 4.02928C12.041 5.32943 12.041 6.61786 12.041 7.97657C17.3236 7.97657 22.6061 7.97657 27.9239 7.97657C27.9239 11.9941 27.9239 15.9531 27.9239 19.9824C22.6413 19.9824 17.347 19.9824 12.0176 19.9824C12.0176 25.3353 12.0176 30.6179 12.0176 35.9707C21.3177 35.9707 30.6061 35.9707 39.918 35.9707C39.9414 36.205 39.9649 36.3807 39.9649 36.5447C39.9649 38.9458 39.9766 41.347 39.9649 43.7482C39.9531 46.3133 38.2548 47.9883 35.6896 47.9883C27.877 47.9883 20.0761 47.9883 12.2635 47.9883C10.1786 47.9883 8.58565 46.8404 8.12884 44.9663C8 44.4627 7.98829 43.9239 7.98829 43.3968C7.97657 35.877 7.98829 28.3572 7.98829 20.8492C7.96486 20.6032 7.96486 20.3572 7.96486 20.0176ZM23.9883 40C23.3206 40 22.6647 39.9766 21.9971 40C20.8141 40.0351 19.9824 40.8668 19.9824 41.9795C19.9824 43.0922 20.8141 43.9473 21.9971 43.9824C23.3206 44.0176 24.6559 44.0176 25.9795 43.9824C27.1625 43.9473 27.9824 43.0805 27.9707 41.9678C27.959 40.855 27.1274 40.0351 25.9326 40C25.2767 39.9883 24.6325 40 23.9883 40Z" fill="#FF7346"/>
<path d="M19.9941 29.9971C19.9941 27.9824 19.9941 26.0381 19.9941 24.0117C20.205 24.0117 20.4158 24.0117 20.6149 24.0117C24.2811 24.0117 27.959 23.9883 31.6252 24.0234C33.3704 24.0351 34.6471 23.3206 35.5373 21.8331C36.6266 20.0293 37.7628 18.2606 38.8638 16.4685C39.063 16.1523 39.2621 15.9883 39.6486 16.0234C40.0937 16.0586 40.5505 16.0234 40.9956 16.0351C41.7804 16.0468 42.0498 16.3865 41.8624 17.1596C41.511 18.6354 41.1244 20.1113 40.7613 21.5871C40.7379 21.7042 40.7145 21.8097 40.6676 22.0205C40.9136 22.0205 41.1127 22.0205 41.3119 22.0205C42.9517 22.0205 44.5915 22.0205 46.2313 22.0205C47.5198 22.0322 48.1523 22.7936 47.8477 24.0351C47.3675 26.0263 46.8755 28.0059 46.3602 29.9854C46.0322 31.2269 45.0249 31.9883 43.7365 31.9883C41.9209 32 40.1054 32 38.2899 31.9766C38.0322 31.9766 37.7511 31.8946 37.5168 31.7774C33.3587 29.7277 34.5534 30.0088 29.8799 29.9854C26.8111 29.9736 23.754 29.9854 20.6852 29.9854C20.4978 29.9971 20.2753 29.9971 19.9941 29.9971Z" fill="#FF7346"/>
</g>
<defs>
<clipPath id="clip0_104_7900">
<rect width="47.9414" height="48" fill="white"/>
</clipPath>
</defs>
</svg>
