<svg width="48" height="48" viewBox="0 0 48 48" fill="none" xmlns="http://www.w3.org/2000/svg">
<path d="M43.9752 18.5936L43.1992 18.4V26.4L43.9752 26.2064C45.3992 25.8496 46.3992 24.5696 46.3992 23.1024V21.6992C46.3992 20.2304 45.3992 18.9504 43.9752 18.5936Z" fill="#FF7346"/>
<path d="M17.5996 14.4V30.4L38.3996 36.8V8L17.5996 14.4Z" fill="#FF7346"/>
<path d="M14.3996 14.72L4.48121 15.712C2.84601 15.8752 1.59961 17.2512 1.59961 18.896V25.904C1.59961 27.5488 2.84601 28.9248 4.48121 29.088L14.3996 30.08V14.72Z" fill="#FF7346"/>
<path d="M7.27148 23.0592L10.2075 40.2688C10.3371 41.0384 11.0043 41.6 11.7835 41.6H12.7995C13.6827 41.6 14.3995 40.8832 14.3995 40L14.3947 28.6208L7.27148 23.0592Z" fill="#FF7346"/>
<path d="M37.5992 38.4C38.924 38.4 39.9992 37.3248 39.9992 36V8.80002C39.9992 7.47522 38.924 6.40002 37.5992 6.40002C36.2744 6.40002 35.1992 7.47522 35.1992 8.80002V36C35.1992 37.3248 36.2744 38.4 37.5992 38.4Z" fill="#FF7346"/>
</svg>
