<svg width="50" height="48" viewBox="0 0 50 48" fill="none" xmlns="http://www.w3.org/2000/svg">
<g clip-path="url(#clip0_104_7918)">
<path d="M0 17.442C3.57886 17.442 7.11839 17.442 10.6973 17.442C10.6973 26.7628 10.6973 36.0639 10.6973 45.3945C7.12823 45.3945 3.57886 45.3945 0 45.3945C0 36.0836 0 26.7923 0 17.442Z" fill="#FF7346"/>
<path d="M15.6133 9.69434C19.1823 9.69434 22.7218 9.69434 26.3204 9.69434C26.3204 9.88114 26.3204 10.0385 26.3204 10.1958C26.3204 13.5878 26.3105 16.9799 26.3302 20.3719C26.3302 20.7259 26.222 20.9225 25.9369 21.129C18.7399 26.1433 18.73 36.9487 25.9173 41.9729C26.222 42.1892 26.3499 42.3957 26.34 42.7693C26.3105 43.6345 26.3302 44.4997 26.3302 45.4043C22.7415 45.4043 19.202 45.4043 15.6231 45.4043C15.6133 33.4977 15.6133 21.6108 15.6133 9.69434Z" fill="#FF7346"/>
<path d="M38.1381 39.8788C33.0058 42.7203 27.7162 40.5572 25.2975 36.939C22.7313 33.1045 23.2229 27.9722 26.5068 24.7276C29.8005 21.4732 34.9329 21.0111 38.728 23.6068C42.4445 26.1434 44.3618 31.4921 41.5597 36.5064C42.9067 37.8534 44.2635 39.2004 45.6203 40.5572C46.9771 41.9042 48.3339 43.2512 49.6711 44.5785C48.5109 45.7387 47.3901 46.8595 46.2397 48.0099C43.5556 45.3061 40.8419 42.5826 38.1381 39.8788ZM33.2713 25.0816C29.6924 25.0914 26.8116 27.9722 26.8018 31.5511C26.8018 35.1397 29.7219 38.0599 33.3008 38.05C36.86 38.0402 39.7702 35.1299 39.7702 31.5609C39.7801 27.9722 36.8796 25.0816 33.2713 25.0816Z" fill="#FF7346"/>
<path d="M42.0115 22.2302C40.5269 20.8734 38.8948 19.9099 37.0365 19.3396C35.1782 18.7694 33.2807 18.6612 31.3438 18.9267C31.3438 12.5948 31.3438 6.31217 31.3438 0C34.9029 0 38.4425 0 42.0115 0C42.0115 7.38386 42.0115 14.7579 42.0115 22.2302Z" fill="#FF7346"/>
</g>
<defs>
<clipPath id="clip0_104_7918">
<rect width="49.6813" height="48" fill="white"/>
</clipPath>
</defs>
</svg>
