<svg width="64" height="48" viewBox="0 0 64 48" fill="none" xmlns="http://www.w3.org/2000/svg">
<g clip-path="url(#clip0_104_7935)">
<path d="M58.5947 34.5956C40.8054 34.5956 23.1096 34.5956 5.32031 34.5956C5.32031 34.2679 5.32031 33.987 5.32031 33.7061C5.32031 25.2796 5.32031 16.8531 5.32031 8.42653C5.32031 3.46424 8.73774 0.0156098 13.7 0.0156098C25.8873 5.07967e-06 38.0901 5.07967e-06 50.293 0.0156098C55.1461 0.0156098 58.6103 3.43303 58.6259 8.23928C58.6571 16.8219 58.6415 25.4044 58.6259 33.987C58.6259 34.1587 58.6103 34.3459 58.5947 34.5956ZM37.9497 5.39922C30.5843 5.39922 23.3281 5.39922 16.0407 5.39922C16.0407 10.7204 16.0407 15.9792 16.0407 21.3472C19.3645 21.3472 22.6415 21.3472 26.0121 21.3472C26.0121 24.0624 26.0121 26.6684 26.0121 29.2744C33.3619 29.2744 40.6025 29.2744 47.8899 29.2744C47.8899 23.9688 47.8899 18.71 47.8899 13.3264C44.5661 13.3264 41.2891 13.3264 37.9341 13.3264C37.9497 10.6424 37.9497 8.05202 37.9497 5.39922Z" fill="#FF7346"/>
<path d="M0 39.9792C0.390117 39.9792 0.671001 39.9792 0.951886 39.9792C7.47464 39.9792 14.013 39.9792 20.5358 39.9636C21.1131 39.9636 21.5657 40.0884 21.8778 40.5566C23.1261 42.3511 24.8114 42.788 26.9649 42.6944C31.0065 42.5228 35.0793 42.632 39.1365 42.6476C39.6983 42.6476 40.1665 42.5696 40.4942 42.1014C41.7581 40.2913 43.459 39.8544 45.6437 39.9168C51.3862 40.0728 57.1287 39.9792 62.8869 39.9792C63.199 39.9792 63.4955 39.9792 64.0104 39.9792C63.8544 40.8375 63.7763 41.6333 63.5423 42.3823C62.4499 45.8934 59.407 48 55.459 48C41.9454 48 28.4161 48 14.9025 48C12.6866 48 10.4863 48.0156 8.27048 48C3.86996 47.9532 0.639792 45.1444 0.0780234 40.8843C0.0312094 40.619 0.0312094 40.3537 0 39.9792Z" fill="#FF7346"/>
<path d="M29.9922 17.3524C34.658 17.3524 39.2458 17.3524 43.9116 17.3524C43.9116 19.9896 43.9116 22.5956 43.9116 25.264C39.2926 25.264 34.658 25.264 29.9922 25.264C29.9922 22.6268 29.9922 20.0364 29.9922 17.3524Z" fill="#FF7346"/>
<path d="M33.9565 9.39404C33.9565 10.7048 33.9565 11.9688 33.9565 13.342C31.3193 13.342 28.7133 13.342 26.0137 13.342C26.0137 14.6996 26.0137 15.948 26.0137 17.2744C23.9695 17.2744 22.0189 17.2744 20.0215 17.2744C20.0215 14.6372 20.0215 12.0468 20.0215 9.39404C24.6405 9.39404 29.2595 9.39404 33.9565 9.39404Z" fill="#FF7346"/>
</g>
<defs>
<clipPath id="clip0_104_7935">
<rect width="64.0104" height="48" fill="white"/>
</clipPath>
</defs>
</svg>
