<svg width="44" height="38" viewBox="0 0 44 38" fill="none" xmlns="http://www.w3.org/2000/svg">
<path d="M0.902344 0.539062V31.4531H17.8984C17.4359 32.789 16.9747 34.1253 16.5117 35.4609H12.6328C12.7079 36.0899 12.4839 37.0191 12.7461 37.4609H31.3672C31.2921 36.832 31.5161 35.9028 31.2539 35.4609H27.4883C27.0259 34.1258 26.5649 32.7893 26.1055 31.4531H43.0977V0.539062H0.902344ZM22 7.53906C25.278 7.53906 27.8906 10.1041 27.8906 13.2656C27.8906 16.4271 25.278 18.9922 22 18.9922C18.722 18.9922 16.1094 16.4271 16.1094 13.2656C16.1094 10.1041 18.722 7.53906 22 7.53906ZM28.1523 8.49219C29.7512 9.08752 31.0189 9.86768 32.0039 10.6445C33.7111 11.9909 34.1657 12.9083 34.375 13.2656C34.1648 13.6242 33.7097 14.5375 32.0039 15.8828C31.0206 16.6583 29.7551 17.4363 28.1602 18.0312C29.2255 16.7152 29.8906 15.0739 29.8906 13.2656C29.8906 11.4534 29.2218 9.80959 28.1523 8.49219ZM15.7969 8.55079C14.7566 9.85852 14.1094 11.4811 14.1094 13.2656C14.1094 15.0472 14.7559 16.666 15.793 17.9727C11.84 16.4648 10.0519 13.8652 9.67578 13.2656C10.0506 12.6678 11.8389 10.0601 15.7969 8.55079ZM22 11.5195C20.9726 11.5195 20.1875 12.3048 20.1875 13.2656C20.1875 14.2265 20.9726 15.0078 22 15.0078C23.0274 15.0078 23.8125 14.2265 23.8125 13.2656C23.8125 12.3048 23.0274 11.5195 22 11.5195ZM2.90234 25.6211H41.0977V29.4531H2.90234V25.6211Z" fill="#FF7346"/>
</svg>
