<svg width="48" height="48" viewBox="0 0 48 48" fill="none" xmlns="http://www.w3.org/2000/svg">
<g clip-path="url(#clip0_104_7124)">
<path d="M42 0H6C4.4087 0 2.88258 0.632141 1.75736 1.75736C0.632141 2.88258 0 4.4087 0 6L0 36C0 37.5913 0.632141 39.1174 1.75736 40.2426C2.88258 41.3679 4.4087 42 6 42C6.53043 42 7.03914 41.7893 7.41421 41.4142C7.78929 41.0391 8 40.5304 8 40C8 39.4696 7.78929 38.9609 7.41421 38.5858C7.03914 38.2107 6.53043 38 6 38C5.46957 38 4.96086 37.7893 4.58579 37.4142C4.21071 37.0391 4 36.5304 4 36V15C4 14.7348 4.10536 14.4804 4.29289 14.2929C4.48043 14.1054 4.73478 14 5 14H43C43.2652 14 43.5196 14.1054 43.7071 14.2929C43.8946 14.4804 44 14.7348 44 15V36C44 36.5304 43.7893 37.0391 43.4142 37.4142C43.0391 37.7893 42.5304 38 42 38C41.4696 38 40.9609 38.2107 40.5858 38.5858C40.2107 38.9609 40 39.4696 40 40C40 40.5304 40.2107 41.0391 40.5858 41.4142C40.9609 41.7893 41.4696 42 42 42C43.5913 42 45.1174 41.3679 46.2426 40.2426C47.3679 39.1174 48 37.5913 48 36V6C48 4.4087 47.3679 2.88258 46.2426 1.75736C45.1174 0.632141 43.5913 0 42 0ZM6 7C6 6.60444 6.1173 6.21776 6.33706 5.88886C6.55682 5.55996 6.86918 5.30362 7.23463 5.15224C7.60009 5.00087 8.00222 4.96126 8.39018 5.03843C8.77814 5.1156 9.13451 5.30608 9.41421 5.58579C9.69392 5.86549 9.8844 6.22186 9.96157 6.60982C10.0387 6.99778 9.99913 7.39991 9.84776 7.76537C9.69638 8.13082 9.44004 8.44318 9.11114 8.66294C8.78224 8.8827 8.39556 9 8 9C7.46957 9 6.96086 8.78929 6.58579 8.41421C6.21071 8.03914 6 7.53043 6 7ZM12 7C12 6.60444 12.1173 6.21776 12.3371 5.88886C12.5568 5.55996 12.8692 5.30362 13.2346 5.15224C13.6001 5.00087 14.0022 4.96126 14.3902 5.03843C14.7781 5.1156 15.1345 5.30608 15.4142 5.58579C15.6939 5.86549 15.8844 6.22186 15.9616 6.60982C16.0387 6.99778 15.9991 7.39991 15.8478 7.76537C15.6964 8.13082 15.44 8.44318 15.1111 8.66294C14.7822 8.8827 14.3956 9 14 9C13.4696 9 12.9609 8.78929 12.5858 8.41421C12.2107 8.03914 12 7.53043 12 7ZM18 7C18 6.60444 18.1173 6.21776 18.3371 5.88886C18.5568 5.55996 18.8692 5.30362 19.2346 5.15224C19.6001 5.00087 20.0022 4.96126 20.3902 5.03843C20.7781 5.1156 21.1345 5.30608 21.4142 5.58579C21.6939 5.86549 21.8844 6.22186 21.9616 6.60982C22.0387 6.99778 21.9991 7.39991 21.8478 7.76537C21.6964 8.13082 21.44 8.44318 21.1111 8.66294C20.7822 8.8827 20.3956 9 20 9C19.4696 9 18.9609 8.78929 18.5858 8.41421C18.2107 8.03914 18 7.53043 18 7Z" fill="#FF7346"/>
<path d="M35.06 25.062C35.3334 24.7792 35.4848 24.4004 35.4815 24.0071C35.4783 23.6138 35.3207 23.2375 35.0427 22.9593C34.7647 22.681 34.3886 22.5231 33.9953 22.5195C33.602 22.5159 33.223 22.6669 32.94 22.94L31.488 24.392C29.7171 23.1346 27.6575 22.3442 25.5 22.094V20.494H27C27.3978 20.494 27.7794 20.336 28.0607 20.0547C28.342 19.7734 28.5 19.3918 28.5 18.994C28.5 18.5962 28.342 18.2147 28.0607 17.9334C27.7794 17.6521 27.3978 17.494 27 17.494H21C20.6022 17.494 20.2207 17.6521 19.9393 17.9334C19.658 18.2147 19.5 18.5962 19.5 18.994C19.5 19.3918 19.658 19.7734 19.9393 20.0547C20.2207 20.336 20.6022 20.494 21 20.494H22.5V22.094C20.3417 22.3462 18.282 23.1394 16.512 24.4L15.06 22.94C14.9216 22.7968 14.756 22.6826 14.573 22.6041C14.3899 22.5256 14.1931 22.4843 13.9939 22.4827C13.7947 22.481 13.5972 22.5191 13.4129 22.5946C13.2286 22.6701 13.0612 22.7815 12.9204 22.9224C12.7796 23.0633 12.6683 23.2309 12.593 23.4153C12.5177 23.5996 12.4798 23.7972 12.4816 23.9963C12.4835 24.1955 12.5249 24.3923 12.6036 24.5753C12.6823 24.7583 12.7967 24.9237 12.94 25.062L14.278 26.4C12.6147 28.2737 11.5283 30.5881 11.1495 33.0647C10.7706 35.5413 11.1155 38.0746 12.1426 40.3598C13.1697 42.645 14.8353 44.5847 16.9389 45.9455C19.0426 47.3064 21.4946 48.0304 24 48.0304C26.5054 48.0304 28.9575 47.3064 31.0611 45.9455C33.1647 44.5847 34.8303 42.645 35.8574 40.3598C36.8845 38.0746 37.2294 35.5413 36.8505 33.0647C36.4717 30.5881 35.3853 28.2737 33.722 26.4L35.06 25.062ZM24 44C22.22 44 20.4799 43.4722 18.9999 42.4832C17.5198 41.4943 16.3663 40.0887 15.6851 38.4442C15.0039 36.7996 14.8257 34.99 15.1729 33.2442C15.5202 31.4984 16.3774 29.8947 17.636 28.6361C18.8947 27.3774 20.4984 26.5202 22.2442 26.173C23.99 25.8257 25.7996 26.0039 27.4442 26.6851C29.0887 27.3663 30.4943 28.5198 31.4832 29.9999C32.4722 31.4799 33 33.22 33 35C33 37.387 32.0518 39.6762 30.364 41.364C28.6761 43.0518 26.387 44 24 44Z" fill="#FF7346"/>
<path d="M25.9401 30.94L22.9401 33.94C22.6667 34.2227 22.5154 34.6016 22.5186 34.9949C22.5218 35.3882 22.6794 35.7645 22.9574 36.0427C23.2354 36.3209 23.6115 36.4789 24.0048 36.4825C24.3981 36.4861 24.7771 36.3351 25.0601 36.062L28.0601 33.062C28.2034 32.9237 28.3178 32.7582 28.3965 32.5752C28.4752 32.3923 28.5167 32.1954 28.5185 31.9963C28.5203 31.7971 28.4825 31.5996 28.4071 31.4152C28.3318 31.2308 28.2205 31.0633 28.0797 30.9224C27.9389 30.7815 27.7715 30.67 27.5872 30.5945C27.4029 30.519 27.2054 30.481 27.0062 30.4826C26.8071 30.4842 26.6102 30.5255 26.4272 30.604C26.2441 30.6826 26.0786 30.7968 25.9401 30.94Z" fill="#FF7346"/>
</g>
<defs>
<clipPath id="clip0_104_7124">
<rect width="48" height="48" fill="white"/>
</clipPath>
</defs>
</svg>
