<svg width="48" height="48" viewBox="0 0 48 48" fill="none" xmlns="http://www.w3.org/2000/svg">
<path d="M1 25.14C1 27.14 2.1 27.58 2.1 27.58C4.24 30.42 4.92 30.8 7.9 31.04C8.14116 31.0603 8.38148 30.9924 8.5764 30.849C8.77132 30.7055 8.90761 30.4963 8.96 30.26C10.3719 25.4435 13.331 21.2262 17.38 18.26C17.5203 18.1694 17.6357 18.045 17.7156 17.8982C17.7955 17.7515 17.8374 17.5871 17.8374 17.42C17.8374 17.2529 17.7955 17.0885 17.7156 16.9418C17.6357 16.795 17.5203 16.6707 17.38 16.58C16.8346 16.2282 16.2508 15.9396 15.64 15.72C16.3566 15.1735 16.9409 14.4726 17.3494 13.6693C17.758 12.866 17.9804 11.981 18 11.08C18 9.47015 17.3605 7.92622 16.2221 6.78787C15.0838 5.64953 13.5399 5.01001 11.93 5.01001C10.3201 5.01001 8.77621 5.64953 7.63786 6.78787C6.49952 7.92622 5.86 9.47015 5.86 11.08C5.86235 11.9746 6.06471 12.8574 6.45229 13.6637C6.83987 14.47 7.40284 15.1794 8.1 15.74C6.17529 16.5156 4.49778 17.8001 3.24709 19.4559C1.9964 21.1117 1.21965 23.0766 1 25.14Z" fill="#FF7346"/>
<path d="M39.4802 13.1201C39.4802 10.7172 38.5257 8.41275 36.8266 6.71367C35.1275 5.01459 32.8231 4.06006 30.4202 4.06006C28.0173 4.06006 25.7129 5.01459 24.0138 6.71367C22.3147 8.41275 21.3602 10.7172 21.3602 13.1201C21.3667 14.4478 21.6743 15.7567 22.2597 16.9484C22.8452 18.1401 23.6933 19.1835 24.7402 20.0001C21.8752 21.1529 19.3794 23.0661 17.5219 25.5333C15.6645 28.0005 14.5159 30.928 14.2002 34.0001C14.2002 37.0001 15.8202 37.6201 15.8202 37.6201C16.3368 38.068 16.9545 38.3838 17.6202 38.5401C19.9002 45.7201 41.7802 45.3201 43.9402 38.5401C47.7802 37.7801 47.3402 33.2201 46.2002 29.7201C45.3751 27.4502 44.0468 25.3966 42.3149 23.7132C40.583 22.0299 38.4926 20.7604 36.2002 20.0001C37.2321 19.1764 38.0635 18.1292 38.6317 16.9374C39.1999 15.7456 39.49 14.4403 39.4802 13.1201Z" fill="#FF7346"/>
</svg>
