<svg width="48" height="48" viewBox="0 0 48 48" fill="none" xmlns="http://www.w3.org/2000/svg">
<g clip-path="url(#clip0_104_7105)">
<path d="M33.1934 5.06277C31.797 6.45964 30.3913 7.85652 28.9669 9.26277C27.7392 8.25027 26.3335 7.41589 24.7779 6.85339C16.2125 3.72214 6.94423 9.58152 6.08207 18.6659C5.38859 26.0253 10.5335 32.6909 17.8056 33.8346C25.4339 35.0346 32.6779 29.7753 33.8306 22.1815C34.1211 20.269 34.0274 18.3846 33.5588 16.5096C33.5214 16.3503 33.5682 16.0971 33.6807 15.994C35.0676 14.5784 36.4733 13.1815 37.879 11.7753C37.9446 11.7096 38.0196 11.6628 38.1133 11.5878C38.9192 13.2846 39.4628 15.0378 39.7439 16.8659C40.4936 21.8346 39.5377 26.4565 36.8669 30.7128C36.6795 31.0128 36.8107 31.144 36.9981 31.3315C40.25 34.5753 43.5018 37.819 46.7349 41.0721C48.2906 42.6284 48.4218 44.9346 47.0629 46.5471C45.5167 48.3846 42.8458 48.4784 41.0934 46.744C39.5284 45.1971 37.9727 43.6315 36.4171 42.0753C34.7396 40.3971 33.0622 38.719 31.3847 37.0409C31.2722 36.9284 31.1598 36.8253 31.0379 36.7034C25.3964 40.2096 19.4175 40.9971 13.1574 38.7659C8.41553 37.069 4.81694 33.919 2.41787 29.4846C-2.48334 20.4659 0.271838 9.24402 8.79976 3.45027C17.0184 -2.12786 27.3082 -0.468481 33.1934 5.06277Z" fill="#FF7346"/>
<path d="M22.0135 16.9969C22.0135 17.1844 22.0135 17.3719 22.0135 17.5594C22.0135 20.9625 22.0135 24.3656 22.0135 27.7781C22.0135 29.1187 21.1607 30.0375 19.9612 30.0094C19.3708 30 18.8928 29.7281 18.4805 29.3156C17.1123 27.9375 15.7441 26.5781 14.3759 25.2C14.2634 25.0875 14.1697 24.9656 14.0385 24.8062C12.9983 25.8469 12.0049 26.85 10.9834 27.8718C10.0932 26.8594 9.41842 25.7625 8.94048 24.5531C8.903 24.45 8.9686 24.2531 9.05294 24.1594C10.2337 22.9594 11.4145 21.75 12.6328 20.5781C13.4575 19.7812 14.6101 19.8 15.4442 20.6156C16.2782 21.4312 17.0842 22.275 18.0119 23.2125C18.0119 22.9031 18.0119 22.7437 18.0119 22.5844C18.0119 19.1437 18.0119 15.7125 18.0119 12.2719C18.0119 11.2125 18.4337 10.4719 19.249 10.1625C20.1767 9.8156 20.9452 10.0875 21.6199 10.7812C22.9413 12.1312 24.2907 13.4531 25.6215 14.7937C25.7433 14.9156 25.8089 15.0844 25.8839 15.2062C29.8292 11.2594 33.6714 7.4156 37.5137 3.57185C36.3798 2.44685 35.2177 1.28435 33.962 0.0374756C37.3919 0.0374756 40.6625 0.0374756 43.9612 0.0374756C43.9612 3.30935 43.9612 6.58123 43.9612 9.89997C42.7804 8.70935 41.6277 7.55623 40.4563 6.38435C40.2595 6.57185 40.1189 6.7031 39.9877 6.82498C35.8831 10.9312 31.7691 15.0469 27.6644 19.1531C26.5305 20.2875 25.4715 20.2969 24.3376 19.1719C23.5879 18.4219 22.8476 17.6719 22.1072 16.9312C22.0791 16.95 22.051 16.9687 22.0135 16.9969Z" fill="#FF7346"/>
</g>
<defs>
<clipPath id="clip0_104_7105">
<rect width="48" height="48" fill="white"/>
</clipPath>
</defs>
</svg>
