<svg width="53" height="41" viewBox="0 0 53 41" fill="none" xmlns="http://www.w3.org/2000/svg">
<g clip-path="url(#clip0_104_6627)">
<path d="M26.5002 40.9616C22.3363 40.9616 18.1723 40.8976 14.0084 40.9872C11.5598 41.0512 10.2298 39.6692 10.64 36.8667C11.3982 31.6457 14.4683 28.2291 18.9305 26.1944C24.5612 23.6351 30.2415 23.8655 35.6484 27.039C38.8428 28.9201 41.1672 31.633 42.0621 35.4335C42.261 36.2909 42.3604 37.1994 42.3853 38.0824C42.435 39.7971 41.279 40.9616 39.601 40.9744C35.2382 40.9744 30.8754 40.9616 26.5002 40.9616Z" fill="#FF7346"/>
<path d="M26.438 21.8052C22.0131 21.7668 18.5079 18.0942 18.5452 13.5131C18.5825 9.07267 22.1995 5.40008 26.525 5.42567C30.9376 5.45126 34.48 9.16225 34.4552 13.705C34.4303 18.2094 30.8257 21.8436 26.438 21.8052Z" fill="#FF7346"/>
<path d="M20.1737 22.7394C19.1172 23.2 18.0731 23.5967 17.0788 24.0958C14.5431 25.3754 12.4425 27.2181 10.7645 29.5471C10.5283 29.867 10.2922 30.0078 9.89443 30.0078C7.53279 29.9822 5.17116 30.0078 2.80953 29.995C1.03209 29.995 -0.0244301 28.8561 0.000429157 27.0262C0.075007 22.1251 3.54288 17.7743 8.21642 16.6866C12.9273 15.5861 17.8494 17.9279 19.9997 22.2915C20.0743 22.445 20.124 22.5986 20.1737 22.7394Z" fill="#FF7346"/>
<path d="M32.7773 22.7522C34.2813 19.617 36.6181 17.608 39.8498 16.7506C46.3878 15.0103 52.9009 20.1289 53.0128 27.0646C53.0377 28.8561 51.9687 29.995 50.2161 30.0078C47.8296 30.0206 45.4556 30.0206 43.0691 29.995C42.8205 29.995 42.4849 29.867 42.3482 29.6751C39.9617 26.3992 36.8916 24.1342 33.0881 22.9185C33.0011 22.8801 32.9389 22.8289 32.7773 22.7522Z" fill="#FF7346"/>
<path d="M10.5773 0C13.4983 0 15.8723 2.40574 15.8972 5.41292C15.9221 8.4201 13.5107 10.9026 10.5649 10.9026C7.66877 10.8898 5.26985 8.4201 5.28227 5.43851C5.28227 2.43134 7.65634 0 10.5773 0Z" fill="#FF7346"/>
<path d="M42.3976 0C45.3186 0 47.6802 2.40574 47.7175 5.42572C47.7424 8.4073 45.3559 10.8898 42.4473 10.9026C39.5015 10.9154 37.0902 8.44569 37.1026 5.43851C37.1026 2.43134 39.4766 0 42.3976 0Z" fill="#FF7346"/>
</g>
<defs>
<clipPath id="clip0_104_6627">
<rect width="53" height="41" fill="white"/>
</clipPath>
</defs>
</svg>
