<svg width="40" height="53" viewBox="0 0 40 53" fill="none" xmlns="http://www.w3.org/2000/svg">
<g clip-path="url(#clip0_104_6586)">
<path d="M17.677 0C17.677 0.258739 17.677 0.45538 17.677 0.662371C17.677 4.05702 17.6667 7.46202 17.677 10.8567C17.6977 16.6731 21.8272 21.3201 27.6126 22.0238C28.0887 22.0859 28.5751 22.0756 29.0615 22.0756C32.4251 22.0756 35.7887 22.0756 39.1523 22.0756C39.3386 22.0756 39.5249 22.0756 39.7526 22.0756C39.7526 22.324 39.7526 22.5103 39.7526 22.6965C39.7526 29.0408 39.7526 35.3954 39.7526 41.7397C39.7526 47.3699 36.0785 51.8098 30.5518 52.8344C29.9102 52.9586 29.2478 52.9897 28.5958 52.9897C22.7793 53 16.9629 53 11.1568 52.9897C5.60945 52.9897 1.066 49.1603 0.144894 43.6958C0.0413982 43.0851 0.0103495 42.4642 0.0103495 41.8432C0 31.6075 0 21.3822 0 11.1568C0.0103495 4.87463 4.88498 0.0103495 11.1672 0C13.1543 0 15.131 0 17.1181 0C17.2837 0 17.4493 0 17.677 0ZM19.8711 33.1289C16.9732 33.1289 14.0754 33.1289 11.1775 33.1289C10.4427 33.1289 9.82172 33.3669 9.35599 33.9361C8.78676 34.6399 8.67292 35.4368 9.05585 36.2648C9.46983 37.1549 10.215 37.5585 11.1775 37.5585C16.9939 37.5585 22.8 37.5585 28.6165 37.5585C28.9063 37.5585 29.2064 37.5067 29.4755 37.4136C30.469 37.0721 31.059 36.0578 30.9037 35.0435C30.7278 33.9258 29.8584 33.1496 28.7303 33.1496C25.7704 33.1185 22.8207 33.1289 19.8711 33.1289ZM19.8504 46.3763C22.7483 46.3763 25.6462 46.3763 28.544 46.3763C29.9205 46.3763 30.9141 45.4448 30.9244 44.1822C30.9348 42.9299 29.9309 41.957 28.5751 41.957C22.7793 41.9467 16.9836 41.9467 11.1879 41.9674C10.8153 41.9674 10.422 42.0502 10.0908 42.2054C9.149 42.6194 8.68327 43.6337 8.90061 44.6479C9.1076 45.6518 9.98731 46.3763 11.0637 46.3763C13.9926 46.3763 16.9215 46.3763 19.8504 46.3763ZM13.2578 24.3007C12.5126 24.3007 11.7778 24.2904 11.0326 24.3007C9.78032 24.3318 8.82816 25.2943 8.83851 26.5052C8.84886 27.6954 9.78032 28.6579 11.0119 28.6786C12.5126 28.6993 14.0133 28.6993 15.514 28.6786C16.7456 28.6579 17.677 27.6954 17.6874 26.5052C17.6977 25.2943 16.7456 24.3318 15.4933 24.3007C14.7377 24.2904 13.9926 24.3007 13.2578 24.3007Z" fill="#FF7346"/>
<path d="M22.0758 1.45929C27.4886 6.8721 32.8808 12.2642 38.2729 17.646C38.2004 17.6563 38.0762 17.677 37.952 17.677C34.8989 17.677 31.8458 17.6977 28.7927 17.677C25.5119 17.6563 22.8417 15.4519 22.2 12.2642C22.1379 11.9434 22.1172 11.6122 22.0862 11.2914C22.0655 11.0844 22.0758 10.8774 22.0758 10.6704C22.0758 7.59657 22.0758 4.52275 22.0758 1.45929Z" fill="#FF7346"/>
</g>
<defs>
<clipPath id="clip0_104_6586">
<rect width="39.7629" height="53" fill="white"/>
</clipPath>
</defs>
</svg>
