<svg width="51" height="39" viewBox="0 0 51 39" fill="none" xmlns="http://www.w3.org/2000/svg">
<path d="M50.4545 9.12079C50.4545 8.67913 49.792 5.14579 48.2462 3.59996C46.2587 1.39163 44.0503 1.17079 42.9462 1.17079H42.7253C35.8795 0.729126 25.7212 0.729126 25.5003 0.729126C25.5003 0.729126 15.1212 0.729126 8.27532 1.17079H8.05449C6.95033 1.17079 4.74199 1.39163 2.75449 3.59996C1.20866 5.36663 0.546159 8.89996 0.546159 9.34163C0.546159 9.56246 0.104492 13.5375 0.104492 17.7333V21.4875C0.104492 25.6833 0.546159 29.6583 0.546159 29.8791C0.546159 30.3208 1.20866 33.8541 2.75449 35.4C4.52116 37.3875 6.72949 37.6083 8.05449 37.8291C8.27532 37.8291 8.49616 37.8291 8.71699 37.8291C12.692 38.2708 24.8378 38.2708 25.2795 38.2708C25.2795 38.2708 35.6587 38.2708 42.5045 37.8291H42.7253C43.8295 37.6083 46.0378 37.3875 48.0253 35.4C49.5712 33.6333 50.2337 30.1 50.2337 29.6583C50.2337 29.4375 50.6753 25.4625 50.6753 21.2666V17.5125C50.8962 13.5375 50.4545 9.34163 50.4545 9.12079ZM34.1128 19.9416L20.8628 27.0083C20.642 27.0083 20.642 27.2291 20.4212 27.2291C20.2003 27.2291 19.9795 27.2291 19.9795 27.0083C19.7587 26.7875 19.5378 26.5666 19.5378 26.125V11.7708C19.5378 11.3291 19.7587 11.1083 19.9795 10.8875C20.2003 10.6666 20.642 10.6666 21.0837 10.8875L34.3337 17.9541C34.7753 18.175 34.9962 18.3958 34.9962 18.8375C34.9962 19.2791 34.5545 19.7208 34.1128 19.9416Z" fill="#FF7346"/>
</svg>
