<svg width="53" height="43" viewBox="0 0 53 43" fill="none" xmlns="http://www.w3.org/2000/svg">
<g clip-path="url(#clip0_104_6606)">
<path d="M14.9112 4.96035C14.9112 4.36097 14.9009 3.83393 14.9112 3.29656C14.9423 1.4571 16.3599 0 18.2017 0C28.7045 0 39.2072 0 49.7099 0.0103341C51.5518 0.0103341 52.9901 1.4571 52.9901 3.3069C53.0005 12.1425 53.0005 20.9781 52.9901 29.8137C52.9901 30.8782 52.5348 31.7565 51.6863 32.3869C51.4173 32.5936 51.3345 32.8003 51.3345 33.1103C51.3448 35.2288 51.3449 37.3473 51.3449 39.4658C51.3449 41.6049 49.9583 43 47.8267 43C33.0608 43 18.2949 43 3.52896 43C1.39737 43 0.0107997 41.6049 0.0107997 39.4658C0.0107997 29.1524 0.0107997 18.8286 0.0107997 8.51526C0.000452183 6.34511 1.38702 4.96035 3.56 4.96035C7.12989 4.96035 10.6998 4.96035 14.2697 4.96035C14.4559 4.96035 14.6525 4.96035 14.9112 4.96035ZM3.3427 39.6621C18.2535 39.6621 33.1332 39.6621 48.013 39.6621C48.013 37.4609 48.013 35.3011 48.013 33.0793C47.775 33.0793 47.5473 33.0793 47.33 33.0793C37.7172 33.0793 28.1147 33.0793 18.5018 33.0793C16.2875 33.0793 14.9112 31.7049 14.9112 29.5141C14.9112 25.5148 14.9112 21.5258 14.9112 17.5266C14.9112 17.3405 14.9112 17.1649 14.9112 16.9892C11.0102 16.9892 7.19198 16.9892 3.3427 16.9892C3.3427 24.5434 3.3427 32.0769 3.3427 39.6621ZM18.2535 11.6051C18.2535 17.6816 18.2535 23.7167 18.2535 29.7311C28.7459 29.7311 39.2072 29.7311 49.6582 29.7311C49.6582 23.665 49.6582 17.6506 49.6582 11.6051C39.1865 11.6051 28.7459 11.6051 18.2535 11.6051Z" fill="#FF7346"/>
<path d="M33.1226 24.8637C33.1226 25.4011 33.133 25.9178 33.1226 26.4345C33.1019 27.3956 32.3776 28.119 31.4567 28.119C30.5358 28.119 29.8321 27.3853 29.8114 26.4139C29.8011 25.9488 29.7907 25.4838 29.8218 25.0188C29.8425 24.6571 29.7183 24.4917 29.3872 24.3367C27.5143 23.479 26.4071 21.5982 26.5106 19.5417C26.614 17.5782 27.9489 15.7904 29.8528 15.1807C30.4323 14.9947 31.0635 14.9224 31.674 14.8914C32.926 14.8397 34.1988 14.9121 35.4508 14.819C36.6201 14.7364 37.6755 14.23 38.6586 13.61C39.2794 13.2173 39.8899 13.0726 40.5522 13.4446C41.2144 13.8166 41.4214 14.416 41.411 15.1394C41.4007 18.2913 41.4007 21.4432 41.411 24.5951C41.411 25.3081 41.1937 25.8868 40.5522 26.2382C39.9106 26.5999 39.3001 26.4862 38.7 26.1038C37.0237 25.0084 35.1714 24.6157 33.1226 24.8637Z" fill="#FF7346"/>
</g>
<defs>
<clipPath id="clip0_104_6606">
<rect width="53" height="43" fill="white"/>
</clipPath>
</defs>
</svg>
