<svg width="49" height="49" viewBox="0 0 49 49" fill="none" xmlns="http://www.w3.org/2000/svg">
<g clip-path="url(#clip0_104_6882)">
<path d="M25.9342 29.2301C25.3722 28.6905 24.8102 28.1739 24.2711 27.6343C22.2524 25.6251 20.2336 23.616 18.2378 21.5839C17.9626 21.3084 17.7676 21.2739 17.412 21.4576C11.0805 24.8215 3.48737 20.8721 2.61565 13.7655C1.95039 8.39247 5.81579 3.38685 11.2296 2.61763C16.632 1.83694 21.7591 5.63708 22.5735 11.0331C22.9291 13.3751 22.585 15.2465 21.2774 17.8297C23.9614 20.4358 26.6798 23.0879 29.4555 25.7859C29.7882 25.6022 30.1781 25.3611 30.5796 25.1544C31.9331 24.4541 33.3668 24.0063 34.8809 23.8341C35.1676 23.7997 35.3855 23.7882 35.4085 23.3979C35.4658 22.2957 35.5576 21.1821 35.6608 20.0799C35.6952 19.7355 35.592 19.5862 35.2708 19.4485C31.6234 17.91 29.4785 15.1776 28.9164 11.2627C28.148 5.84373 32.3345 0.574054 37.7713 0.0574181C43.4146 -0.482179 48.1517 3.26056 48.9202 8.8517C49.6199 13.9262 46.0756 18.8859 40.9829 19.9421C40.8682 19.9651 40.765 19.9881 40.5815 20.034C40.5012 21.0558 40.4094 22.0776 40.3406 23.0994C40.2603 24.3048 40.2718 24.3048 41.3614 24.7756C46.4312 26.9569 49.5969 32.3873 48.9202 37.7374C48.1861 43.5237 43.9422 47.9667 38.3219 48.8622C32.4033 49.8037 26.588 46.3709 24.5349 40.6994C24.3628 40.2402 24.1678 40.1368 23.7205 40.1828C22.5276 40.3091 21.3233 40.3894 20.096 40.4928C19.9698 40.952 19.8666 41.4227 19.7289 41.8704C18.3296 46.4054 13.9939 49.3559 9.29121 48.9771C4.57702 48.5982 0.734562 44.9473 0.10371 40.2402C-0.561552 35.2575 2.60418 30.5159 7.47894 29.1842C12.3193 27.8639 17.4923 30.4011 19.3848 35.0623C19.5684 35.4986 19.7634 35.6249 20.2222 35.579C21.2889 35.4642 22.3556 35.4182 23.4223 35.3034C23.5714 35.292 23.8008 35.0968 23.8237 34.9705C24.0646 32.904 24.7528 31.0211 25.9342 29.2301Z" fill="#FF7346"/>
</g>
<defs>
<clipPath id="clip0_104_6882">
<rect width="49" height="49" fill="white"/>
</clipPath>
</defs>
</svg>
