<svg width="45" height="45" viewBox="0 0 45 45" fill="none" xmlns="http://www.w3.org/2000/svg">
<g clip-path="url(#clip0_104_6918)">
<path d="M28.0158 3.76687C27.8749 3.86391 27.7076 3.94331 27.5844 4.06681C23.6575 8.01016 19.7307 11.9623 15.7951 15.8968C14.897 16.7967 14.2983 17.8376 14.0342 19.0815C13.5675 21.3223 12.9864 23.5453 12.599 25.7949C11.8947 29.8706 15.4165 33.2052 19.449 32.3583C21.5973 31.9084 23.7368 31.4056 25.8939 30.9468C27.1353 30.6822 28.1743 30.0823 29.0723 29.1737C32.9904 25.2215 36.926 21.2781 40.844 17.3348C40.9673 17.2113 41.0729 17.0701 41.2754 16.832C41.3018 17.0878 41.3195 17.2113 41.3195 17.326C41.3195 24.6481 41.3283 31.9702 41.3195 39.2923C41.3106 42.521 38.8366 44.9911 35.6229 44.9911C25.6474 45 15.663 45 5.68748 44.9911C2.51785 44.9911 0.00855653 42.4769 0.00855653 39.3099C-0.00024801 29.306 -0.00024801 19.2932 0.00855653 9.2805C0.00855653 6.1664 2.4298 3.63455 5.51139 3.6169C12.9248 3.58162 20.3294 3.59926 27.7429 3.59926C27.8045 3.59926 27.8573 3.60808 27.9189 3.6169C27.9454 3.66983 27.9806 3.71394 28.0158 3.76687Z" fill="#FF7346"/>
<path d="M39.2948 13.5856C39.2156 13.6738 39.1187 13.7797 39.0131 13.8856C34.8661 18.0406 30.7104 22.1869 26.5899 26.386C25.8503 27.1359 24.961 27.3123 24.0366 27.5152C22.3109 27.9034 20.5764 28.2739 18.8419 28.6532C17.125 29.0326 15.9892 27.8946 16.359 26.1655C16.808 24.0747 17.2483 21.9751 17.7325 19.8844C17.8382 19.4433 18.0583 18.9757 18.3664 18.6582C22.6542 14.3266 26.9597 10.0128 31.2651 5.69893C31.2915 5.67246 31.3355 5.646 31.3355 5.646C33.9857 8.28371 36.627 10.9214 39.2948 13.5856Z" fill="#FF7346"/>
<path d="M42.0413 10.8861C39.3559 8.20427 36.7322 5.57537 34.1084 2.93766C36.2743 -0.741034 41.7331 -1.02333 44.0399 2.43481C45.3958 4.46383 45.3166 7.11037 43.7934 9.0247C43.2651 9.68633 42.64 10.2598 42.0413 10.8861Z" fill="#FF7346"/>
</g>
<defs>
<clipPath id="clip0_104_6918">
<rect width="45" height="45" fill="white"/>
</clipPath>
</defs>
</svg>
