<svg width="53" height="53" viewBox="0 0 53 53" fill="none" xmlns="http://www.w3.org/2000/svg">
<g clip-path="url(#clip0_104_6861)">
<path d="M41.0789 23.8674C38.1234 23.8674 35.1555 23.8674 32.2001 23.8674C30.1759 23.8674 29.1328 22.8243 29.1328 20.8126C29.1328 14.8768 29.1328 8.92854 29.1328 2.99273C29.1328 1.08036 30.1759 0.0124161 32.0759 0.0124161C36.3849 0.0124161 40.6815 -1.9134e-06 44.9906 0.0124161C49.0264 0.0372521 52.193 2.71954 52.8884 6.6933C52.9754 7.20244 52.9878 7.72399 52.9878 8.23313C53.0002 12.4304 52.9878 16.6401 52.9878 20.8374C52.9878 22.8119 51.9447 23.855 49.9578 23.855C47.0023 23.8674 44.0344 23.8674 41.0789 23.8674Z" fill="#FF7346"/>
<path d="M21.135 26.4627C14.0816 26.4627 7.06544 26.4627 0.036852 26.4627C0.024434 26.2765 0.012016 26.115 0.012016 25.9536C0.012016 21.7067 -0.01282 17.4721 0.024434 13.2252C0.0492699 9.36317 2.63221 6.23383 6.4197 5.4515C6.92884 5.35216 7.45039 5.29007 7.95953 5.29007C12.2065 5.27765 16.441 5.27765 20.688 5.27765C20.8246 5.27765 20.9736 5.29007 21.1474 5.30249C21.135 12.3683 21.135 19.3969 21.135 26.4627Z" fill="#FF7346"/>
<path d="M26.5244 52.9627C26.5244 45.8845 26.5244 38.8807 26.5244 31.8397C33.5778 31.8397 40.6064 31.8397 47.6598 31.8397C47.6723 32.0384 47.6971 32.1998 47.6971 32.3613C47.6971 36.5586 47.7219 40.7683 47.6971 44.9655C47.6723 49.0014 44.9776 52.168 41.0162 52.8882C40.6064 52.9627 40.1966 52.9876 39.7868 52.9876C35.5275 53 31.2557 52.9876 26.9963 52.9876C26.8473 53 26.7107 52.9751 26.5244 52.9627Z" fill="#FF7346"/>
<path d="M21.1478 52.9628C20.9739 52.9752 20.8249 52.9876 20.6883 52.9876C16.4414 52.9876 12.2068 53.0124 7.95987 52.9752C3.96128 52.9503 0.807107 50.2432 0.099281 46.3067C0.024773 45.9218 0.012355 45.5244 0.012355 45.127C-6.29486e-05 40.818 0.012355 36.5213 0.012355 32.2123C0.012355 32.1129 0.024773 32.0136 0.037191 31.8522C7.06578 31.8522 14.0819 31.8522 21.1478 31.8522C21.1478 38.8808 21.1478 45.8845 21.1478 52.9628Z" fill="#FF7346"/>
</g>
<defs>
<clipPath id="clip0_104_6861">
<rect width="52.9876" height="53" fill="white"/>
</clipPath>
</defs>
</svg>
