<svg width="50" height="53" viewBox="0 0 50 53" fill="none" xmlns="http://www.w3.org/2000/svg">
<g clip-path="url(#clip0_104_6901)">
<path d="M45.9573 28.4956C44.5418 34.2853 41.4556 38.8798 36.6521 42.3606C37.5223 43.9965 38.3925 45.6093 39.2627 47.222C39.9472 48.4983 40.6318 49.7745 41.3163 51.0508C41.8965 52.153 41.4091 52.9768 40.1793 52.9884C38.613 52.9884 37.0466 52.9768 35.4803 53C34.819 53.0116 34.4013 52.7564 34.0764 52.1879C32.9394 50.1458 31.7675 48.127 30.6537 46.0618C30.3868 45.5745 30.1548 45.528 29.6675 45.6673C25.3398 46.9203 21.012 46.8855 16.6959 45.6209C16.2782 45.5048 16.1274 45.6093 15.9302 45.9573C14.7815 48.0226 13.6097 50.0646 12.4726 52.1298C12.1362 52.7448 11.6953 53.0232 10.9875 53.0116C9.42119 52.9768 7.85486 53.0116 6.28853 53C5.12828 53 4.61777 52.153 5.16309 51.1204C6.6134 48.4055 8.0637 45.7021 9.52561 42.9987C9.63003 42.7899 9.74606 42.5926 9.85048 42.3838C9.17754 41.8385 8.5046 41.328 7.86646 40.7594C3.26029 36.6058 0.603325 31.4659 0.081215 25.2934C-0.835379 14.3407 5.81283 4.45537 16.2898 1.09065C28.8785 -2.9586 42.581 4.66421 45.7949 17.5081C45.9225 17.9954 46.1081 18.1695 46.5954 18.1347C47.2916 18.0882 47.9877 18.1115 48.6839 18.1347C49.6585 18.1695 50.169 19.028 49.6933 19.8866C49.1132 20.9192 48.5099 21.9287 47.8833 22.9265C47.7093 23.2165 47.7209 23.4254 47.8949 23.7038C48.4402 24.574 48.9391 25.4674 49.4729 26.3376C49.7745 26.8249 50.053 27.3122 49.7281 27.9039C49.4032 28.484 48.8463 28.5189 48.2662 28.5072C47.512 28.484 46.7579 28.4956 45.9573 28.4956ZM30.6885 24.458C29.6095 29.4703 25.2701 31.199 22.0911 30.7001C18.5755 30.1432 15.8373 27.0337 15.7793 23.379C15.7213 19.6546 18.4131 16.5103 22.2187 15.8954C23.9823 15.6169 25.6414 15.9882 27.1613 16.9164C29.0989 18.0998 30.2128 19.8634 30.6653 22.1259C32.1968 22.1259 33.7051 22.1259 35.2018 22.1259C35.898 22.1259 36.2345 21.7198 36.1068 21.0237C34.877 14.1318 28.6 9.51403 21.6038 10.3494C14.4218 11.208 9.21235 18.0534 10.3262 25.1773C11.4864 32.5913 18.3203 37.4527 25.711 36.1185C30.9669 35.1671 35.2482 30.7929 36.1184 25.4906C36.188 25.0497 35.8864 24.458 35.5267 24.458C33.9256 24.458 32.3012 24.458 30.6885 24.458ZM46.6535 20.4435C44.2634 20.4435 42.0125 20.4319 39.75 20.4551C39.5876 20.4551 39.3787 20.6292 39.2743 20.78C38.8218 21.4994 38.3693 22.2187 37.9748 22.9729C37.882 23.1585 37.8936 23.4834 37.998 23.6806C38.3809 24.4 38.8218 25.0729 39.2163 25.7807C39.3903 26.0939 39.5992 26.1868 39.9472 26.1868C41.9893 26.1752 44.0429 26.1752 46.0849 26.1752C46.2474 26.1752 46.4098 26.152 46.6187 26.1287C46.1894 25.4094 45.8065 24.7365 45.4004 24.0867C45.0639 23.553 45.0639 23.0541 45.4004 22.5204C45.8297 21.8706 46.2126 21.2093 46.6535 20.4435Z" fill="#FF7346"/>
</g>
<defs>
<clipPath id="clip0_104_6901">
<rect width="49.8789" height="53" fill="white"/>
</clipPath>
</defs>
</svg>
