<svg width="24" height="24" viewBox="0 0 24 24" fill="none" xmlns="http://www.w3.org/2000/svg">
<path d="M12.1096 0.795898C15.1536 0.795898 15.5334 0.807102 16.7278 0.863121C17.9209 0.919139 18.7332 1.10624 19.448 1.38409C20.1875 1.66867 20.8104 2.05407 21.4333 2.67588C22.003 3.23595 22.4438 3.91343 22.7251 4.66118C23.0018 5.37485 23.1901 6.18824 23.2461 7.38144C23.2987 8.57575 23.3133 8.95556 23.3133 11.9996C23.3133 15.0436 23.3021 15.4235 23.2461 16.6178C23.1901 17.811 23.0018 18.6232 22.7251 19.338C22.4446 20.0862 22.0037 20.7638 21.4333 21.3233C20.8731 21.8928 20.1956 22.3336 19.448 22.6151C18.7343 22.8918 17.9209 23.0801 16.7278 23.1361C15.5334 23.1887 15.1536 23.2033 12.1096 23.2033C9.06554 23.2033 8.68574 23.1921 7.49142 23.1361C6.29823 23.0801 5.48596 22.8918 4.77116 22.6151C4.02312 22.3344 3.34552 21.8935 2.78587 21.3233C2.21605 20.7633 1.77521 20.0858 1.49408 19.338C1.21623 18.6244 1.02912 17.811 0.973106 16.6178C0.920449 15.4235 0.905884 15.0436 0.905884 11.9996C0.905884 8.95556 0.917087 8.57575 0.973106 7.38144C1.02912 6.18712 1.21623 5.37597 1.49408 4.66118C1.77444 3.91297 2.21538 3.2353 2.78587 2.67588C3.34568 2.10587 4.02323 1.665 4.77116 1.38409C5.48596 1.10624 6.29711 0.919139 7.49142 0.863121C8.68574 0.810463 9.06554 0.795898 12.1096 0.795898ZM12.1096 6.39775C10.6239 6.39775 9.19903 6.98794 8.14848 8.03849C7.09793 9.08905 6.50774 10.5139 6.50774 11.9996C6.50774 13.4853 7.09793 14.9102 8.14848 15.9607C9.19903 17.0113 10.6239 17.6015 12.1096 17.6015C13.5953 17.6015 15.0201 17.0113 16.0707 15.9607C17.1212 14.9102 17.7114 13.4853 17.7114 11.9996C17.7114 10.5139 17.1212 9.08905 16.0707 8.03849C15.0201 6.98794 13.5953 6.39775 12.1096 6.39775ZM19.392 6.11766C19.392 5.74623 19.2444 5.39002 18.9818 5.12738C18.7192 4.86474 18.363 4.71719 17.9915 4.71719C17.6201 4.71719 17.2639 4.86474 17.0013 5.12738C16.7386 5.39002 16.5911 5.74623 16.5911 6.11766C16.5911 6.48908 16.7386 6.8453 17.0013 7.10793C17.2639 7.37057 17.6201 7.51812 17.9915 7.51812C18.363 7.51812 18.7192 7.37057 18.9818 7.10793C19.2444 6.8453 19.392 6.48908 19.392 6.11766ZM12.1096 8.63849C13.001 8.63849 13.8559 8.99261 14.4863 9.62294C15.1166 10.2533 15.4707 11.1082 15.4707 11.9996C15.4707 12.891 15.1166 13.7459 14.4863 14.3763C13.8559 15.0066 13.001 15.3607 12.1096 15.3607C11.2182 15.3607 10.3633 15.0066 9.73292 14.3763C9.10259 13.7459 8.74848 12.891 8.74848 11.9996C8.74848 11.1082 9.10259 10.2533 9.73292 9.62294C10.3633 8.99261 11.2182 8.63849 12.1096 8.63849Z" fill="#FF7346"/>
</svg>
