<svg width="21" height="20" viewBox="0 0 21 20" fill="none" xmlns="http://www.w3.org/2000/svg">
<path d="M0.450691 6.6509H4.74809V19.5832H0.450691V6.6509ZM2.62816 0.416992C1.15734 0.416992 0.196411 1.3826 0.196411 2.64998C0.196411 3.8913 1.12921 4.88498 2.57191 4.88498H2.59932C4.09826 4.88498 5.03173 3.89125 5.03173 2.64998C5.00361 1.3826 4.09831 0.416992 2.62816 0.416992ZM15.2994 6.34711C13.0183 6.34711 11.9963 7.6018 11.4262 8.4817V6.6509H7.12756C7.18447 7.8641 7.12756 19.5832 7.12756 19.5832H11.4262V12.3609C11.4262 11.9741 11.4544 11.5887 11.5675 11.3116C11.8787 10.5394 12.586 9.73973 13.7723 9.73973C15.3289 9.73973 15.9505 10.9262 15.9505 12.6639V19.5831H20.2485V12.1675C20.2485 8.19534 18.1286 6.34711 15.2994 6.34711Z" fill="#FF7346"/>
</svg>
