<svg width="49" height="49" viewBox="0 0 49 49" fill="none" xmlns="http://www.w3.org/2000/svg">
<g clip-path="url(#clip0_104_7385)">
<path d="M0.365234 17.2934C16.3754 17.2934 32.3145 17.2934 48.3145 17.2934C48.3246 17.466 48.3348 17.6284 48.3348 17.801C48.3348 25.6386 48.3449 33.4761 48.3348 41.3035C48.3348 44.9076 45.949 47.7198 42.4058 48.3289C41.9795 48.4 41.5327 48.4101 41.0962 48.4101C29.9287 48.4101 18.7612 48.4203 7.59366 48.4101C3.88808 48.4101 1.08605 46.0751 0.456605 42.4914C0.385539 42.065 0.375387 41.6183 0.375387 41.1817C0.375387 33.4152 0.375387 25.6487 0.375387 17.8822C0.365234 17.6792 0.365234 17.4964 0.365234 17.2934ZM23.8678 39.4457C26.2333 39.4457 28.6089 39.466 30.9744 39.4355C33.5734 39.4051 35.7561 37.2426 35.8272 34.6538C35.8576 33.4152 35.8576 32.1868 35.8272 30.9482C35.7561 28.3391 33.6038 26.1665 30.9947 26.1563C26.2434 26.1259 21.482 26.1259 16.7307 26.1563C14.3957 26.1665 12.2942 27.933 11.9794 30.2376C11.7967 31.5472 11.8678 32.9076 11.8678 34.2376C11.8678 37.2832 14.0302 39.4457 17.0759 39.4558C19.3297 39.4457 21.6038 39.4457 23.8678 39.4457Z" fill="#FF7346"/>
<path d="M48.3346 13.2223C32.3142 13.2223 16.365 13.2223 0.365012 13.2223C0.365012 12.7655 0.365012 12.3289 0.365012 11.8924C0.365012 10.4711 0.405622 9.04974 0.35486 7.62842C0.233033 3.65888 3.50207 0.379692 7.61374 0.399996C17.5122 0.46091 27.4107 0.420301 37.3092 0.420301C38.7305 0.420301 40.1518 0.399996 41.5731 0.430453C45.2686 0.521824 48.2432 3.5066 48.3244 7.19187C48.365 9.19187 48.3346 11.1817 48.3346 13.2223ZM16.3346 6.74517C16.3346 5.61827 15.4615 4.74517 14.3447 4.75533C13.2178 4.76548 12.3549 5.62842 12.3549 6.74517C12.3549 7.84162 13.2584 8.75533 14.3447 8.75533C15.431 8.75533 16.3346 7.84162 16.3346 6.74517ZM8.33456 6.73502C8.33456 5.60812 7.46146 4.73502 6.34471 4.75533C5.2178 4.77563 4.34471 5.64873 4.35486 6.75533C4.36501 7.84162 5.27872 8.75533 6.36501 8.75533C7.44115 8.74517 8.34471 7.83147 8.33456 6.73502ZM20.365 6.74517C20.365 7.85177 21.2584 8.75533 22.3447 8.75533C23.4209 8.75533 24.3447 7.83147 24.3549 6.75533C24.3549 5.65888 23.4818 4.77563 22.365 4.76548C21.2381 4.74517 20.365 5.62842 20.365 6.74517Z" fill="#FF7346"/>
</g>
<defs>
<clipPath id="clip0_104_7385">
<rect width="47.9898" height="48" fill="white" transform="translate(0.355469 0.400024)"/>
</clipPath>
</defs>
</svg>
