<svg width="48" height="48" viewBox="0 0 48 48" fill="none" xmlns="http://www.w3.org/2000/svg">
<g clip-path="url(#clip0_104_7424)">
<path d="M28.8102 19.65C28.1802 21.48 26.7502 22.04 25.1302 22.31C23.9202 22.51 22.7402 22.41 21.5902 22C20.4802 21.6 19.5802 20.96 19.2302 19.7C19.0302 20.07 18.8902 20.42 18.6802 20.71C18.1702 21.42 17.4302 21.8 16.6302 22.06C15.2602 22.49 13.8702 22.53 12.4902 22.15C11.1702 21.79 10.0602 21.16 9.6202 19.66C8.8502 21.73 7.1502 22.18 5.3002 22.38C4.8602 22.43 4.4002 22.41 3.9502 22.36C1.7702 22.1 0.640201 20.95 0.210201 18.59C0.120201 18.07 0.0702006 17.53 0.0202006 17C-0.0397994 16.4 0.0502006 15.83 0.260201 15.24C1.7602 11.11 3.2202 6.97 4.7002 2.84C4.8102 2.53 4.9302 2.21 5.0702 1.91C5.6902 0.65 6.7002 0 8.1402 0C15.1402 0.01 22.1402 0 29.1402 0C32.6602 0 36.1702 0 39.6902 0C41.4702 0 42.5002 0.68 43.1102 2.35C44.1602 5.21 45.1702 8.08 46.2002 10.94C46.6802 12.29 47.1302 13.65 47.6602 14.98C47.9902 15.8 48.1002 16.62 47.9302 17.47C47.7602 18.36 47.6102 19.28 47.3002 20.13C46.8802 21.28 45.9902 22 44.7702 22.25C43.3702 22.54 41.9802 22.46 40.6402 21.94C39.5902 21.54 38.7602 20.89 38.4102 19.59C38.0502 20.9 37.1902 21.56 36.1102 21.96C35.0502 22.36 33.9402 22.5 32.8202 22.35C32.2102 22.27 31.6102 22.13 31.0302 21.92C29.9702 21.55 29.1502 20.87 28.8102 19.65Z" fill="#FF7346"/>
<path d="M44.8004 25.52C44.8004 25.72 44.8004 25.88 44.8004 26.04C44.8004 32.19 44.8004 38.34 44.8004 44.49C44.8004 46.7 43.4904 48.01 41.2904 48.01C34.1204 48.01 26.9604 48.01 19.7904 48.01C19.6104 48.01 19.4304 48.01 19.2004 48.01C19.2004 42.67 19.2004 37.36 19.2004 32.03C15.9904 32.03 12.8304 32.03 9.61043 32.03C9.61043 37.34 9.61043 42.64 9.61043 47.93C8.28043 47.93 6.99043 48.05 5.74043 47.9C4.26043 47.72 3.21043 46.36 3.20043 44.87C3.19043 38.52 3.19043 32.17 3.19043 25.82C3.19043 25.72 3.21043 25.63 3.21043 25.64C4.41043 25.57 5.58043 25.59 6.72043 25.41C7.59043 25.27 8.42043 24.87 9.28043 24.62C9.48043 24.56 9.74043 24.54 9.91043 24.62C12.8904 25.96 15.8704 25.97 18.8504 24.63C19.0404 24.54 19.3404 24.54 19.5304 24.63C22.5004 25.96 25.4604 25.97 28.4304 24.64C28.6304 24.55 28.9504 24.55 29.1504 24.64C32.1204 25.96 35.0804 25.96 38.0504 24.63C38.2204 24.55 38.4804 24.51 38.6404 24.58C40.4904 25.48 42.4404 25.77 44.4704 25.53C44.5604 25.51 44.6404 25.52 44.8004 25.52ZM25.6304 32.03C25.6304 35.23 25.6304 38.41 25.6304 41.57C29.9004 41.57 34.1404 41.57 38.3704 41.57C38.3704 38.37 38.3704 35.21 38.3704 32.03C34.1204 32.03 29.9004 32.03 25.6304 32.03Z" fill="#FF7346"/>
</g>
<defs>
<clipPath id="clip0_104_7424">
<rect width="48" height="48" fill="white"/>
</clipPath>
</defs>
</svg>
