<svg width="49" height="49" viewBox="0 0 49 49" fill="none" xmlns="http://www.w3.org/2000/svg">
<g clip-path="url(#clip0_104_7404)">
<path d="M0.1846 12.205C16.1879 12.205 32.1413 12.205 48.1346 12.205C48.1446 12.3849 48.1546 12.5448 48.1546 12.7047C48.1546 22.8405 48.1546 32.9663 48.1546 43.1021C48.1546 45.4711 46.7652 47.3603 44.5761 47.9301C44.1463 48.04 43.6865 48.1 43.2467 48.1C30.502 48.11 17.7573 48.11 5.01259 48.1C2.32371 48.1 0.174604 46.0109 0.174604 43.342C0.154612 33.0663 0.164608 22.7806 0.164608 12.5048C0.164608 12.4249 0.174604 12.3449 0.1846 12.205ZM22.1355 39.1137C22.9751 39.1237 23.5749 38.6339 23.7748 37.7343C25.0842 31.8268 26.3837 25.9092 27.6831 19.9917C27.8931 19.0321 27.3833 18.1825 26.5036 17.9925C25.574 17.7926 24.7744 18.3324 24.5544 19.322C24.0646 21.5011 23.5948 23.6702 23.115 25.8493C22.2854 29.6177 21.4457 33.3861 20.6261 37.1546C20.3962 38.1941 21.1159 39.1037 22.1355 39.1137ZM34.7002 28.5182C34.6003 28.6281 34.5503 28.6881 34.4903 28.7481C32.871 30.3774 31.2417 31.9967 29.6323 33.636C28.9626 34.3157 28.9726 35.2953 29.6223 35.9551C30.2321 36.5748 31.1817 36.5748 31.8614 35.9051C33.9305 33.8559 35.9897 31.7968 38.0388 29.7277C38.7685 28.988 38.7585 28.0883 38.0288 27.3386C37.519 26.8089 36.9993 26.2991 36.4795 25.7793C34.9401 24.2399 33.4008 22.6906 31.8514 21.1612C31.1817 20.5015 30.2721 20.5315 29.6223 21.1812C28.9626 21.8409 28.9526 22.7106 29.6023 23.4103C29.8322 23.6502 30.0721 23.8801 30.3021 24.12C31.7415 25.5694 33.2008 27.0288 34.7002 28.5182ZM13.579 28.5981C13.7789 28.3882 13.8989 28.2483 14.0288 28.1183C15.5982 26.549 17.1675 24.9896 18.7269 23.4103C19.3666 22.7606 19.3466 21.771 18.7369 21.1612C18.1371 20.5615 17.1575 20.5115 16.5278 21.1312C14.4087 23.2304 12.2996 25.3395 10.2004 27.4586C9.59068 28.0783 9.58068 29.008 10.1904 29.6277C12.2996 31.7668 14.4087 33.8959 16.5578 35.985C17.3674 36.7747 18.6369 36.4549 19.0567 35.3953C19.3266 34.7256 19.1967 34.1258 18.6769 33.616C17.4874 32.4265 16.3079 31.227 15.1084 30.0475C14.6186 29.5477 14.1088 29.0879 13.579 28.5981Z" fill="#FF7346"/>
<path d="M48.1541 8.96628C32.1507 8.96628 16.1974 8.96628 0.244043 8.96628C0.224051 8.94629 0.184068 8.9163 0.184068 8.89631C0.184068 7.39694 0.0741139 5.88756 0.20406 4.39818C0.423968 1.87923 2.5031 0.0999756 5.07203 0.0999756C9.66012 0.0999756 14.2382 0.0999756 18.8163 0.0999756C26.9229 0.0999756 35.0395 0.0999756 43.1462 0.0999756C45.3952 0.0999756 47.1845 1.32946 47.8742 3.33863C47.9742 3.61851 48.0341 3.91838 48.0841 4.20826C48.1341 4.49814 48.1441 4.80801 48.1441 5.09789C48.1541 6.38736 48.1541 7.65683 48.1541 8.96628ZM9.27028 6.17744C9.28028 5.29781 8.60056 4.57811 7.72093 4.55812C6.84129 4.53813 6.08161 5.27782 6.08161 6.14746C6.08161 7.0071 6.81131 7.73679 7.67095 7.73679C8.55058 7.74679 9.26029 7.04708 9.27028 6.17744ZM14.788 6.14746C14.788 5.26782 14.0783 4.55812 13.2086 4.55812C12.349 4.54812 11.6093 5.26782 11.5993 6.13746C11.5793 7.01709 12.329 7.75679 13.2186 7.74679C14.0983 7.7268 14.788 7.02709 14.788 6.14746ZM17.137 6.16745C17.147 7.04708 17.8567 7.74679 18.7363 7.73679C19.606 7.73679 20.3257 7.01709 20.3257 6.14746C20.3257 5.26782 19.576 4.52813 18.6964 4.54812C17.8167 4.57811 17.127 5.28781 17.137 6.16745Z" fill="#FF7346"/>
</g>
<defs>
<clipPath id="clip0_104_7404">
<rect width="48.01" height="48" fill="white" transform="translate(0.144531 0.0999756)"/>
</clipPath>
</defs>
</svg>
