<svg width="44" height="48" viewBox="0 0 44 48" fill="none" xmlns="http://www.w3.org/2000/svg">
<g clip-path="url(#clip0_104_7442)">
<path d="M34.6133 33.4131C34.6133 32.0933 34.6133 30.8536 34.6133 29.6038C34.6133 29.5039 34.5833 29.4139 34.5733 29.3039C26.0151 29.3039 17.4769 29.3039 8.90868 29.3039C8.90868 30.6736 8.90868 32.0133 8.90868 33.4131C9.11864 33.4131 9.2986 33.4131 9.46856 33.4131C10.6183 33.4131 11.7681 33.4031 12.9178 33.4131C13.8676 33.423 14.5575 34.0629 14.5575 34.9927C14.5675 38.7919 14.5675 42.5911 14.5575 46.3903C14.5575 47.3302 13.8776 47.98 12.9278 47.98C9.17863 47.99 5.42941 47.99 1.68019 47.98C0.640404 47.99 0.0105352 47.3202 0.000537269 46.2304C-0.00946065 42.9011 0.000537269 39.5618 0.000537269 36.2325C0.000537269 35.8625 -0.00946065 35.5026 0.000537269 35.1327C0.0205331 34.0729 0.670398 33.423 1.72018 33.4131C2.84994 33.4031 3.98971 33.4131 5.11947 33.4131C5.27944 33.4131 5.4394 33.4031 5.65936 33.3931C5.65936 33.1831 5.65936 33.0031 5.65936 32.8332C5.65936 31.2135 5.65936 29.6038 5.65936 27.9842C5.65936 26.6845 6.25923 26.0846 7.54896 26.0846C11.5281 26.0846 15.5173 26.0846 19.4965 26.0846C19.6964 26.0846 19.8864 26.0846 20.1063 26.0846C20.1063 24.3049 20.1063 22.5753 20.1063 20.8057C19.9164 20.7957 19.7464 20.7857 19.5665 20.7857C17.4469 20.7857 15.3373 20.7857 13.2178 20.7857C11.968 20.7857 11.3482 20.1558 11.3482 18.9061C11.3482 13.2373 11.3482 7.57843 11.3482 1.90961C11.3482 0.629881 11.958 0.0100098 13.2478 0.0100098C18.9166 0.0100098 24.5754 0.0100098 30.2442 0.0100098C31.504 0.0100098 32.1238 0.629881 32.1238 1.86962C32.1238 7.54844 32.1238 13.2373 32.1238 18.9161C32.1238 20.1558 31.494 20.7757 30.2342 20.7757C28.1347 20.7757 26.0351 20.7757 23.9356 20.7757C23.7556 20.7757 23.5756 20.7757 23.3657 20.7757C23.3657 22.5453 23.3657 24.275 23.3657 26.0746C23.5556 26.0746 23.7456 26.0746 23.9356 26.0746C27.9347 26.0746 31.9339 26.0746 35.933 26.0746C37.1928 26.0746 37.7927 26.6745 37.8027 27.9442C37.8027 29.7438 37.8027 31.5434 37.8027 33.4131C38.0126 33.4131 38.1826 33.4131 38.3625 33.4131C39.4923 33.4131 40.6321 33.4031 41.7618 33.4131C42.7916 33.423 43.4615 34.0629 43.4615 35.0927C43.4715 38.8219 43.4715 42.5611 43.4615 46.2904C43.4615 47.3601 42.8016 47.99 41.7218 47.99C38.0226 47.99 34.3234 47.99 30.6242 47.99C29.5644 47.99 28.9045 47.3501 28.9045 46.2804C28.8945 42.5611 28.8945 38.8519 28.9045 35.1327C28.9045 34.0729 29.5644 33.423 30.6242 33.4131C31.9339 33.4131 33.2336 33.4131 34.6133 33.4131ZM21.736 11.9975C20.6362 11.9975 19.5365 11.9875 18.4467 11.9975C17.4769 12.0075 16.757 12.6774 16.747 13.5872C16.7371 14.487 17.4569 15.1968 18.4267 15.1968C20.6362 15.2068 22.8458 15.2068 25.0653 15.1968C26.0351 15.1968 26.745 14.487 26.735 13.5872C26.725 12.6874 26.0051 12.0075 25.0353 11.9975C23.9356 11.9975 22.8358 11.9975 21.736 11.9975ZM21.796 5.58885C20.6862 5.58885 19.5665 5.58885 18.4567 5.58885C17.4769 5.58885 16.767 6.25871 16.757 7.16852C16.747 8.06833 17.4669 8.77818 18.4267 8.78818C20.6362 8.79818 22.8558 8.79818 25.0653 8.78818C26.0351 8.77818 26.745 8.06833 26.735 7.16852C26.725 6.25871 26.0151 5.59885 25.0353 5.58885C23.9555 5.58885 22.8758 5.58885 21.796 5.58885Z" fill="#FF7346"/>
</g>
<defs>
<clipPath id="clip0_104_7442">
<rect width="43.4809" height="48" fill="white"/>
</clipPath>
</defs>
</svg>
