<svg width="48" height="48" viewBox="0 0 48 48" fill="none" xmlns="http://www.w3.org/2000/svg">
<g clip-path="url(#clip0_104_7462)">
<path d="M24.0002 47.9906C23.5504 47.9906 23.0912 47.9906 22.6413 47.9906C21.0763 47.9813 20.0267 47.1847 19.5863 45.6665C19.4645 45.2448 19.352 44.8231 19.2396 44.4014C19.024 43.6236 18.5742 42.9957 17.8526 42.6583C16.8967 42.2085 15.9127 41.8149 14.91 41.4869C14.0291 41.2058 13.2419 41.59 12.4734 42.0305C11.9018 42.3585 11.2833 42.6583 10.6554 42.8364C9.78387 43.08 8.96856 42.7989 8.31257 42.1991C7.48789 41.4401 6.69133 40.6435 5.91351 39.8282C4.99512 38.8629 4.85455 37.7384 5.39808 36.5388C5.61362 36.0609 5.90414 35.6111 6.1759 35.1519C6.6351 34.3741 6.72881 33.5494 6.42893 32.7153C6.1103 31.8344 5.73545 30.9816 5.33248 30.1382C4.97637 29.3979 4.35787 28.9387 3.55193 28.7325C3.05525 28.6013 2.5492 28.4889 2.06189 28.3202C0.731157 27.861 0.0189352 26.8489 0.000192567 25.4526C-0.00917877 24.5154 -0.00917877 23.5783 0.000192567 22.6412C0.00956391 21.0761 0.806128 20.0265 2.32428 19.5861C2.74599 19.4643 3.16771 19.3612 3.58942 19.2487C4.33912 19.0613 4.94826 18.6396 5.27626 17.9461C5.72608 16.9902 6.12905 16.0062 6.48516 15.0129C6.71944 14.3381 6.59761 13.654 6.25087 13.0168C6.02596 12.6044 5.77294 12.2109 5.54803 11.7985C4.77958 10.4116 4.95763 9.12768 6.06345 7.99375C6.7007 7.34713 7.33795 6.70987 7.98457 6.07262C9.13725 4.94806 10.4117 4.77938 11.8268 5.56657C12.1642 5.754 12.5016 5.96017 12.8296 6.16634C13.598 6.6349 14.4227 6.70987 15.2661 6.42873C15.9502 6.20382 16.6062 5.93205 17.2716 5.65091C18.443 5.17297 19.1365 4.29207 19.3989 3.04568C19.4926 2.60523 19.605 2.16477 19.7925 1.75244C20.2985 0.618504 21.2075 0.0281094 22.4445 -4.57559e-06C23.4098 -0.0187473 24.3844 -0.00937592 25.3497 -0.00937592C26.924 -4.57559e-06 27.9643 0.787188 28.4047 2.31472C28.5266 2.7458 28.639 3.18625 28.7608 3.6267C28.9764 4.36704 29.4075 4.97618 30.0916 5.30417C31.0756 5.76337 32.0877 6.16634 33.1185 6.51308C33.7089 6.70987 34.3274 6.59742 34.8897 6.28816C35.3114 6.05388 35.7237 5.80085 36.1454 5.56657C37.5511 4.77938 38.835 4.94806 39.9877 6.07262C40.6343 6.70987 41.2809 7.34713 41.9088 7.99375C43.0146 9.12768 43.1927 10.4116 42.4242 11.7985C42.2274 12.1546 42.0119 12.5014 41.8057 12.8481C41.3372 13.6353 41.2622 14.4787 41.5621 15.3315C41.8057 16.0344 42.1056 16.7278 42.3961 17.4119C42.8741 18.5365 43.7269 19.1831 44.9264 19.408C45.3668 19.4924 45.8167 19.6142 46.2196 19.8016C47.3536 20.3077 47.944 21.2167 47.9721 22.4537C47.9908 23.419 47.9814 24.3936 47.9814 25.3588C47.9721 26.9145 47.1943 27.9641 45.7042 28.4045C45.2544 28.5357 44.8046 28.6482 44.3454 28.77C43.6238 28.9574 43.0428 29.3604 42.7241 30.0258C42.2649 30.991 41.8526 31.9844 41.4871 32.9965C41.2528 33.6618 41.3747 34.3553 41.7214 34.9926C41.9369 35.3862 42.1806 35.7704 42.3961 36.164C43.1927 37.5884 43.024 38.8817 41.8713 40.0437C41.2435 40.681 40.6156 41.3089 39.9783 41.9274C38.8256 43.0519 37.5418 43.2206 36.1361 42.4334C35.8081 42.246 35.4895 42.0586 35.1708 41.8618C34.4024 41.3838 33.5777 41.2807 32.7437 41.5713C31.9096 41.8618 31.0849 42.1991 30.279 42.574C29.4262 42.977 28.9108 43.6892 28.6671 44.5888C28.5453 45.0387 28.4516 45.4978 28.2923 45.9383C27.8237 47.269 26.821 47.9813 25.4246 48C24.9654 48 24.4781 47.9906 24.0002 47.9906ZM24.0096 16.5029C19.8674 16.4936 16.5031 19.8579 16.4937 24C16.4937 28.1234 19.8393 31.4877 23.9533 31.4971C28.0955 31.5158 31.4785 28.1609 31.4879 24.0281C31.5066 19.8766 28.1517 16.5123 24.0096 16.5029Z" fill="#FF7346"/>
</g>
<defs>
<clipPath id="clip0_104_7462">
<rect width="48" height="48" fill="white"/>
</clipPath>
</defs>
</svg>
