<svg width="36" height="36" viewBox="0 0 36 36" fill="none" xmlns="http://www.w3.org/2000/svg">
<path d="M18 36C27.9411 36 36 27.9411 36 18C36 8.05887 27.9411 0 18 0C8.05887 0 0 8.05887 0 18C0 27.9411 8.05887 36 18 36Z" fill="#3C579E"/>
<path d="M15.8218 29.25V19.0839H12.1934V15.4589H15.8223V12.1132C15.8223 8.73816 17.8147 6.75 20.8252 6.75C22.2677 6.75 23.4445 6.90412 23.8059 6.95222V10.7429L21.3824 10.7418C19.7458 10.7418 19.4389 11.5538 19.4389 12.6951V15.4592H23.634L23.0417 19.0839H19.4395V29.25H15.8218Z" fill="white"/>
</svg>
