<svg width="36" height="36" viewBox="0 0 36 36" fill="none" xmlns="http://www.w3.org/2000/svg">
<path d="M17.7846 0C22.6871 0.0300157 26.8693 1.64086 30.3611 4.93258C33.843 8.22431 35.744 12.3064 35.9741 17.099C36.2142 22.2216 34.5733 26.704 31.0215 30.4159C27.5297 34.0678 23.2174 35.9488 18.1548 35.9989C13.4423 36.0489 9.31012 34.4681 5.84831 31.2764C1.76617 27.5044 -0.194854 22.7819 0.0152556 17.229C0.185345 12.5766 1.97628 8.57449 5.26801 5.29277C8.73982 1.82095 12.982 0.0900472 17.7846 0Z" fill="#0087CB"/>
<path d="M12.4617 20.4308C11.4812 20.1306 10.4907 19.8205 9.51018 19.5203C9.02993 19.3702 8.54968 19.2202 8.06943 19.0701C7.88934 19.0101 7.71925 18.95 7.56917 18.84C7.28902 18.6299 7.26901 18.3697 7.50914 18.1096C7.66922 17.9295 7.86933 17.8094 8.08944 17.7194C8.66974 17.4893 9.25005 17.2591 9.83035 17.029C13.8324 15.4882 17.8345 13.9374 21.8466 12.3966C23.1173 11.9063 24.378 11.4161 25.6486 10.9258C25.8187 10.8558 25.9988 10.8158 26.1889 10.8458C26.5691 10.9058 26.8593 11.216 26.8993 11.6162C26.9193 11.8363 26.9093 12.0564 26.8693 12.2765C26.379 14.5777 25.8888 16.8889 25.3985 19.1901C24.9983 21.0911 24.5881 22.9921 24.1879 24.9031C24.0978 25.3334 24.0078 25.7636 23.9177 26.1938C23.8777 26.4039 23.8177 26.604 23.7176 26.7941C23.5175 27.1643 23.1974 27.3044 22.7871 27.2244C22.537 27.1743 22.3169 27.0643 22.1168 26.9142C20.7361 25.8937 19.3553 24.8631 17.9646 23.8426C17.9046 23.7926 17.8345 23.7525 17.7745 23.7125C17.5344 23.6425 17.3643 23.4624 17.1742 23.3223C16.5139 22.8421 15.8535 22.3418 15.1932 21.8615C15.1431 21.8215 15.0931 21.7815 15.0531 21.7315C14.9931 21.6314 15.0531 21.5714 15.1131 21.5114C16.0136 20.7109 16.9041 19.8905 17.8045 19.0901C18.4549 18.4998 19.1152 17.9095 19.7656 17.3192C20.4159 16.7289 21.0662 16.1486 21.7166 15.5683C22.2268 15.108 22.7371 14.6578 23.2374 14.1975C23.2774 14.1575 23.3174 14.1175 23.3574 14.0775C23.3875 14.0374 23.4275 13.9974 23.4075 13.9474C23.3875 13.8874 23.3274 13.8874 23.2774 13.8874C23.0973 13.8674 22.9472 13.9374 22.7971 14.0274C22.2469 14.3576 21.7166 14.7078 21.1763 15.048C19.5354 16.0785 17.8846 17.1191 16.2437 18.1496C15.1131 18.86 13.9825 19.5703 12.8519 20.2907C12.7219 20.3608 12.6318 20.4908 12.4617 20.4308Z" fill="#FCFDFE"/>
<path d="M12.4618 20.4308C12.7319 20.3207 12.9621 20.1406 13.2122 19.9905C13.9326 19.5403 14.6529 19.0901 15.3733 18.6298C15.8836 18.3097 16.3838 17.9795 16.8941 17.6593C17.7345 17.129 18.585 16.5988 19.4354 16.0685C20.0257 15.6983 20.6161 15.3181 21.2164 14.9379C21.7366 14.6077 22.2569 14.2775 22.7772 13.9474C22.9473 13.8473 23.1174 13.7873 23.3275 13.8073C23.3875 13.8173 23.4475 13.8173 23.4675 13.8773C23.4976 13.9374 23.4776 13.9974 23.4275 14.0574C23.3075 14.1775 23.1974 14.3076 23.0573 14.4176C22.8072 14.6177 22.5871 14.8478 22.347 15.058C21.9568 15.3881 21.5966 15.7483 21.2064 16.0785C21.0463 16.2186 20.8962 16.3686 20.7361 16.5087C20.506 16.6988 20.2859 16.9289 20.0658 17.129C19.7256 17.4392 19.3754 17.7394 19.0352 18.0395C18.8852 18.1796 18.7251 18.3197 18.585 18.4597C18.2148 18.8099 17.8246 19.1401 17.4544 19.4903C17.0042 19.9005 16.5439 20.3007 16.1037 20.7209C15.7835 21.0211 15.4434 21.3012 15.1132 21.5914C15.0632 21.6314 15.0632 21.6714 15.0932 21.7214C15.0231 22.852 14.9431 23.9826 14.8731 25.1132C14.853 25.4134 14.813 25.7035 14.823 26.0037C14.823 26.0937 14.823 26.1738 14.753 26.2438C14.693 26.2638 14.6229 26.2638 14.5629 26.2638C14.3828 26.2538 14.2527 26.1638 14.2027 25.9937C14.1527 25.8136 14.0926 25.6435 14.0426 25.4634C13.5524 23.8526 13.0621 22.2317 12.5719 20.6209C12.5218 20.5508 12.4918 20.4908 12.4618 20.4308Z" fill="#CCD9E9"/>
<path d="M14.7229 26.2338C14.6929 25.8436 14.763 25.4534 14.773 25.0732C14.793 24.653 14.833 24.2327 14.853 23.8125C14.883 23.3823 14.913 22.9521 14.9431 22.5319C14.9531 22.3117 14.9731 22.0916 14.9731 21.8815C14.9731 21.8115 14.9931 21.7615 15.0631 21.7214C15.8735 22.3217 16.684 22.9121 17.4844 23.5124C17.5744 23.5824 17.6745 23.6324 17.7445 23.7225C16.9941 24.4529 16.2337 25.1832 15.4833 25.9136C15.2832 26.1137 15.0431 26.2738 14.7229 26.2338Z" fill="#B1C8DB"/>
</svg>
