<svg width="36" height="36" viewBox="0 0 36 36" fill="none" xmlns="http://www.w3.org/2000/svg">
<path d="M18 36C27.9411 36 36 27.9411 36 18C36 8.05887 27.9411 0 18 0C8.05887 0 0 8.05887 0 18C0 27.9411 8.05887 36 18 36Z" fill="#55ACEE"/>
<path d="M29.5312 11.303C28.7035 11.6703 27.8142 11.9183 26.8796 12.0297C27.8331 11.4585 28.5643 10.5537 28.9094 9.47596C28.0176 10.005 27.0295 10.3892 25.9782 10.5962C25.1362 9.699 23.9363 9.13818 22.6091 9.13818C20.0596 9.13818 17.9927 11.2051 17.9927 13.7541C17.9927 14.116 18.0338 14.4682 18.1125 14.8062C14.2757 14.6136 10.8745 12.7759 8.59781 9.98334C8.20041 10.6648 7.97259 11.4579 7.97259 12.3039C7.97259 13.9054 8.78766 15.3184 10.0263 16.1461C9.26972 16.1222 8.55759 15.9143 7.93547 15.5684C7.93491 15.5878 7.93491 15.6072 7.93491 15.6266C7.93491 17.8637 9.52594 19.7284 11.6378 20.1528C11.2503 20.2582 10.8428 20.3145 10.4217 20.3145C10.1242 20.3145 9.83503 20.2855 9.55322 20.2315C10.1407 22.0656 11.8454 23.4007 13.8653 23.4375C12.2856 24.6753 10.2952 25.413 8.13234 25.413C7.75969 25.413 7.39209 25.3916 7.03125 25.3486C9.07397 26.6584 11.5009 27.4225 14.1075 27.4225C22.5979 27.4225 27.241 20.3885 27.241 14.2887C27.241 14.0887 27.236 13.8893 27.2272 13.6916C28.1301 13.0417 28.9122 12.2286 29.5312 11.303Z" fill="white"/>
</svg>
