<svg width="36" height="36" viewBox="0 0 36 36" fill="none" xmlns="http://www.w3.org/2000/svg">
<path d="M17.9974 35.9948C27.9371 35.9948 35.9948 27.9371 35.9948 17.9974C35.9948 8.05772 27.9371 0 17.9974 0C8.05772 0 0 8.05772 0 17.9974C0 27.9371 8.05772 35.9948 17.9974 35.9948Z" fill="#7A519B"/>
<path d="M24.6374 28.5563C23.8132 28.2971 23.4503 28.2142 23.0823 28.0691C16.0223 25.1092 10.8853 20.2159 8.024 13.0315C7.79423 12.4925 7.68911 11.9085 7.71647 11.3232C7.74382 10.7379 7.90296 10.1663 8.18201 9.65108C8.46105 9.13584 8.85281 8.69025 9.32807 8.34751C9.80332 8.00478 10.3498 7.77375 10.9268 7.67165C11.2637 7.59908 11.8132 7.5939 11.9635 7.79088C13.2884 9.36956 14.5223 11.0223 15.6594 12.7412C15.8616 13.0678 15.3069 14.1719 14.8145 14.5658C13.6897 15.4626 13.5964 16.5097 14.3428 17.4738C15.3873 18.8318 16.5704 20.0774 17.8728 21.1904C19.0132 22.1598 20.1795 22.3101 21.3665 20.8639C22.5536 19.4177 23.8858 19.9775 27.0685 22.59C28.3851 23.6682 28.7221 24.793 27.5869 26.0371C26.6604 26.941 25.675 27.7826 24.6374 28.5563Z" fill="white"/>
<path d="M27.9913 17.1628L27.3796 18.2513C27.0442 17.823 26.7799 17.3434 26.5969 16.831C25.6898 11.6682 23.9014 9.84875 18.6608 8.81203C18.2617 8.72909 17.9351 8.33514 17.5775 8.08633C17.9714 7.8738 18.355 7.50058 18.7593 7.46948C23.326 7.13255 27.9394 11.7563 27.9913 17.1628Z" fill="white"/>
<path d="M25.6021 16.3957L24.8349 17.2769C24.5913 16.9037 24.1766 16.5512 24.1299 16.1572C23.8345 13.3737 22.3157 11.8238 19.5736 11.3261C19.1381 11.2484 18.7753 10.7611 18.3762 10.4657C18.8945 10.2739 19.4129 9.86955 19.8846 9.94731C21.4575 10.1459 22.9047 10.9095 23.9565 12.0958C25.0084 13.2821 25.5932 14.8103 25.6021 16.3957Z" fill="white"/>
<path d="M23.1552 15.7009L22.6368 16.4629C22.3465 16.2141 22.0459 15.986 21.7815 15.7217C21.1284 15.0737 20.4908 14.4206 19.8584 13.7571C19.5889 13.4772 19.3401 13.1714 19.0964 12.8759C19.4541 12.6893 19.8066 12.3575 20.1643 12.3575C21.6105 12.3213 23.1448 13.9282 23.1552 15.7009Z" fill="white"/>
</svg>
