<svg width="36" height="36" viewBox="0 0 36 36" fill="none" xmlns="http://www.w3.org/2000/svg">
<path d="M18 36C27.9411 36 36 27.9411 36 18C36 8.05887 27.9411 0 18 0C8.05887 0 0 8.05887 0 18C0 27.9411 8.05887 36 18 36Z" fill="#25D366"/>
<path d="M25.9723 9.9814C23.8568 7.86359 21.044 6.69696 18.047 6.69556C11.8724 6.69556 6.84591 11.7209 6.84394 17.898C6.84281 19.873 7.35891 21.8004 8.33906 23.4986L6.75 29.3041L12.6886 27.7466C14.3252 28.6384 16.1674 29.1089 18.0425 29.1098H18.0472C24.2218 29.1098 29.2475 24.0836 29.25 17.9067C29.2514 14.9137 28.0868 12.0989 25.9723 9.9814ZM18.0472 27.2175H18.0436C16.3721 27.217 14.7336 26.7681 13.3037 25.9198L12.9637 25.7179L9.43959 26.6424L10.3798 23.2066L10.1585 22.8534C9.22612 21.3712 8.73366 19.6581 8.73478 17.898C8.73647 12.7644 12.9139 8.58753 18.0501 8.58753C20.5374 8.58809 22.8749 9.55812 24.6333 11.3185C26.3914 13.0785 27.3589 15.4177 27.3583 17.9059C27.3566 23.0404 23.1792 27.2175 18.0472 27.2175ZM23.1548 20.2439C22.8746 20.1036 21.4985 19.4272 21.2417 19.333C20.9849 19.2396 20.799 19.1932 20.6123 19.4733C20.4255 19.7534 19.8892 20.3843 19.7255 20.571C19.5623 20.7578 19.3992 20.7814 19.1191 20.6411C18.839 20.5007 17.9373 20.2054 16.8688 19.2514C16.0363 18.5097 15.4744 17.5923 15.3112 17.3122C15.1481 17.0321 15.2938 16.881 15.4342 16.7412C15.5602 16.6158 15.7143 16.4144 15.8541 16.2507C15.9938 16.0871 16.0405 15.9703 16.1339 15.7839C16.2273 15.5971 16.1809 15.4337 16.1106 15.2936C16.0403 15.1533 15.4806 13.7755 15.2477 13.2149C15.0202 12.669 14.7895 12.743 14.618 12.7346C14.4543 12.7267 14.2678 12.7244 14.0813 12.7244C13.8949 12.7244 13.5914 12.7945 13.3349 13.0749C13.0787 13.355 12.3553 14.032 12.3553 15.4104C12.3553 16.7879 13.3582 18.1194 13.4983 18.3058C13.6384 18.4923 15.4721 21.3203 18.2801 22.5327C18.9478 22.8207 19.4695 22.9931 19.8759 23.1225C20.5464 23.336 21.1568 23.3053 21.6394 23.2333C22.1771 23.1532 23.2954 22.5564 23.5291 21.9025C23.7622 21.2488 23.7622 20.6886 23.6917 20.5716C23.6211 20.4543 23.4343 20.3843 23.1548 20.2439Z" fill="white"/>
</svg>
