<svg width="41" height="41" viewBox="0 0 41 41" fill="none" xmlns="http://www.w3.org/2000/svg">
<g clip-path="url(#clip0)">
<path fill-rule="evenodd" clip-rule="evenodd" d="M20.5 40.6279C31.5457 40.6279 40.5 31.6736 40.5 20.6279C40.5 9.58223 31.5457 0.62793 20.5 0.62793C9.4543 0.62793 0.5 9.58223 0.5 20.6279C0.5 31.6736 9.4543 40.6279 20.5 40.6279ZM20.5 38.2279C30.2202 38.2279 38.1 30.3481 38.1 20.6279C38.1 10.9077 30.2202 3.02793 20.5 3.02793C10.7798 3.02793 2.9 10.9077 2.9 20.6279C2.9 30.3481 10.7798 38.2279 20.5 38.2279ZM21.9516 29.4279V20.6269H24.555L24.9 17.594H21.9516L21.956 16.076C21.956 15.285 22.0366 14.8612 23.254 14.8612H24.8816V11.8279H22.2778C19.1503 11.8279 18.0495 13.2992 18.0495 15.7734V17.5944H16.1V20.6272H18.0495V29.4279H21.9516Z" fill="white"/>
</g>
<defs>
<clipPath id="clip0">
<rect width="40" height="40" fill="white" transform="translate(0.5 0.62793)"/>
</clipPath>
</defs>
</svg>
