<svg width="50" height="51" viewBox="0 0 50 51" fill="none" xmlns="http://www.w3.org/2000/svg">
<path fill-rule="evenodd" clip-rule="evenodd" d="M25 50.1206C38.8071 50.1206 50 38.9277 50 25.1206C50 11.3135 38.8071 0.120605 25 0.120605C11.1929 0.120605 0 11.3135 0 25.1206C0 38.9277 11.1929 50.1206 25 50.1206ZM25 47.1206C37.1503 47.1206 47 37.2709 47 25.1206C47 12.9703 37.1503 3.12061 25 3.12061C12.8497 3.12061 3 12.9703 3 25.1206C3 37.2709 12.8497 47.1206 25 47.1206ZM26.8145 36.1206V25.1193H30.0687L30.5 21.3282H26.8145L26.82 19.4307C26.82 18.4419 26.9207 17.9121 28.4426 17.9121H30.477V14.1206H27.2223C23.3129 14.1206 21.9369 15.9597 21.9369 19.0525V21.3286H19.5V25.1197H21.9369V36.1206H26.8145Z" fill="black"/>
</svg>
