<svg width="50" height="51" viewBox="0 0 50 51" fill="none" xmlns="http://www.w3.org/2000/svg">
<path fill-rule="evenodd" clip-rule="evenodd" d="M25 0.120605C38.8071 0.120605 50 11.3135 50 25.1206C50 38.9277 38.8071 50.1206 25 50.1206C11.1929 50.1206 0 38.9277 0 25.1206C0 11.3135 11.1929 0.120605 25 0.120605ZM25 3.12061C37.1503 3.12061 47 12.9703 47 25.1206C47 37.2709 37.1503 47.1206 25 47.1206C12.8497 47.1206 3 37.2709 3 25.1206C3 12.9703 12.8497 3.12061 25 3.12061ZM12.1666 23.3997L34.3117 15.2526C35.3231 14.8148 36.2994 15.4845 35.9132 16.961L32.1421 33.9115C31.8789 35.1161 31.1156 35.4044 30.0584 34.8481L24.3134 30.7994L24.2732 30.8367C22.9401 32.0729 21.7535 33.1733 21.552 33.3614L21.5308 33.3812C21.2204 33.6706 20.9642 33.9095 20.4023 33.9095C19.819 33.9095 19.7703 33.7449 19.6531 33.3484C19.6207 33.2388 19.583 33.1114 19.5274 32.9648L17.4141 26.785L11.8911 25.1407C10.6641 24.7822 10.6552 23.9781 12.1666 23.3997ZM30.7299 18.9157L18.281 26.4072L20.3788 32.5416L20.7938 28.3192L31.4534 19.1457C31.9212 18.7495 31.3514 18.5562 30.7299 18.9157Z" fill="black"/>
</svg>
