<svg width="40" height="41" viewBox="0 0 40 41" fill="none" xmlns="http://www.w3.org/2000/svg">
<path fill-rule="evenodd" clip-rule="evenodd" d="M20 0.62793C31.0457 0.62793 40 9.58223 40 20.6279C40 31.6736 31.0457 40.6279 20 40.6279C8.9543 40.6279 0 31.6736 0 20.6279C0 9.58223 8.9543 0.62793 20 0.62793ZM20 3.02793C29.7202 3.02793 37.6 10.9077 37.6 20.6279C37.6 30.3481 29.7202 38.2279 20 38.2279C10.2798 38.2279 2.4 30.3481 2.4 20.6279C2.4 10.9077 10.2798 3.02793 20 3.02793ZM9.73308 19.2511L27.4491 12.7335C28.2583 12.3832 29.0393 12.919 28.7304 14.1002L25.7135 27.6606C25.5029 28.6243 24.8923 28.8549 24.0465 28.4098L19.4505 25.1709L19.4392 25.1813C18.3643 26.1782 17.4036 27.069 17.2414 27.2205L17.2244 27.2363C16.9761 27.4678 16.7712 27.659 16.3216 27.659C15.855 27.659 15.816 27.5273 15.7223 27.2101C15.6963 27.1224 15.6662 27.0205 15.6217 26.9032L13.9311 21.9593L9.51267 20.6439C8.53109 20.3571 8.52392 19.7138 9.73308 19.2511ZM24.5837 15.6639L14.6246 21.6571L16.3028 26.5646L16.6348 23.1867L25.1625 15.8479C25.5368 15.531 25.0809 15.3763 24.5837 15.6639Z" fill="white"/>
</svg>
