<svg width="41" height="41" viewBox="0 0 41 41" fill="none" xmlns="http://www.w3.org/2000/svg">
<g clip-path="url(#clip0)">
<path fill-rule="evenodd" clip-rule="evenodd" d="M40.5 20.6279C40.5 9.58223 31.5457 0.62793 20.5 0.62793C9.4543 0.62793 0.5 9.58223 0.5 20.6279C0.5 31.6736 9.4543 40.6279 20.5 40.6279C31.5457 40.6279 40.5 31.6736 40.5 20.6279ZM38.1 20.6279C38.1 10.9077 30.2202 3.02793 20.5 3.02793C10.7798 3.02793 2.9 10.9077 2.9 20.6279C2.9 30.3481 10.7798 38.2279 20.5 38.2279C30.2202 38.2279 38.1 30.3481 38.1 20.6279ZM29.9147 25.2403C29.6759 26.2781 28.827 27.0433 27.8055 27.1574C25.386 27.4278 22.9371 27.4291 20.4988 27.4278C18.0606 27.4291 15.6116 27.4278 13.1922 27.1574C12.1706 27.0433 11.3221 26.2781 11.0835 25.2403C10.7438 23.7623 10.7438 22.1496 10.7438 20.6282C10.7438 19.1065 10.7478 17.4936 11.0874 16.0155C11.3262 14.9778 12.1746 14.2124 13.196 14.0984C15.6156 13.8281 18.0644 13.8267 20.5028 13.8281C22.9409 13.8267 25.39 13.8281 27.8093 14.0984C28.831 14.2124 29.6799 14.9778 29.9185 16.0155C30.2582 17.4936 30.2562 19.1065 30.2562 20.6282C30.2562 22.1496 30.2542 23.7623 29.9147 25.2403ZM18.7438 17.0279L24.1438 20.1456L18.7438 23.2633V17.0279Z" fill="white"/>
</g>
<defs>
<clipPath id="clip0">
<rect width="40" height="40" fill="white" transform="translate(0.5 0.62793)"/>
</clipPath>
</defs>
</svg>
