<svg width="50" height="51" viewBox="0 0 50 51" fill="none" xmlns="http://www.w3.org/2000/svg">
<g clip-path="url(#clip0)">
<path fill-rule="evenodd" clip-rule="evenodd" d="M50 25.1206C50 11.3135 38.8071 0.120605 25 0.120605C11.1929 0.120605 0 11.3135 0 25.1206C0 38.9277 11.1929 50.1206 25 50.1206C38.8071 50.1206 50 38.9277 50 25.1206ZM47 25.1206C47 12.9703 37.1503 3.12061 25 3.12061C12.8497 3.12061 3 12.9703 3 25.1206C3 37.2709 12.8497 47.1206 25 47.1206C37.1503 47.1206 47 37.2709 47 25.1206ZM36.7683 30.8861C36.4698 32.1833 35.4087 33.1398 34.1319 33.2825C31.1075 33.6204 28.0464 33.6221 24.9985 33.6204C21.9508 33.6221 18.8894 33.6204 15.8653 33.2825C14.5882 33.1398 13.5277 32.1833 13.2294 30.8861C12.8048 29.0386 12.8048 27.0227 12.8048 25.1209C12.8048 23.2188 12.8098 21.2026 13.2342 19.3551C13.5327 18.0579 14.5932 17.1011 15.87 16.9587C18.8945 16.6208 21.9556 16.6191 25.0035 16.6208C28.0512 16.6191 31.1125 16.6208 34.1367 16.9587C35.4138 17.1011 36.4749 18.0579 36.7731 19.3551C37.1978 21.2026 37.1952 23.2188 37.1952 25.1209C37.1952 27.0227 37.1927 29.0386 36.7683 30.8861ZM22.8048 20.6206L29.5548 24.5177L22.8048 28.4148V20.6206Z" fill="black"/>
</g>
<defs>
<clipPath id="clip0">
<rect width="50" height="50" fill="white" transform="translate(0 0.120605)"/>
</clipPath>
</defs>
</svg>
